<?xml version="1.0" standalone="no"?>
<!DOCTYPE svg PUBLIC "-//W3C//DTD SVG 20010904//EN"
 "http://www.w3.org/TR/2001/REC-SVG-20010904/DTD/svg10.dtd">
<svg version="1.0" xmlns="http://www.w3.org/2000/svg"
 width="200.000000pt" height="200.000000pt" viewBox="0 0 200.000000 200.000000"
 preserveAspectRatio="xMidYMid meet">
<metadata>
Created by potrace 1.11, written by Peter Selinger 2001-2013
</metadata>
<g transform="translate(0.000000,200.000000) scale(0.100000,-0.100000)"
fill="#000000" stroke="none">
<path d="M0 1000 l0 -1000 1000 0 1000 0 0 1000 0 1000 -1000 0 -1000 0 0
-1000z m1596 -75 c87 -26 173 -121 174 -192 0 -21 -5 -23 -53 -23 -51 0 -53 1
-65 35 -37 100 -186 134 -283 64 -42 -29 -79 -108 -86 -182 -16 -172 71 -297
207 -297 51 0 116 27 144 59 19 21 47 110 39 124 -2 4 -42 7 -89 7 l-84 0 0
45 0 45 140 0 140 0 0 -180 0 -180 -35 0 c-30 0 -36 4 -41 28 -11 43 -14 44
-50 17 -53 -40 -101 -56 -171 -56 -71 0 -120 13 -174 47 -106 66 -168 236
-139 379 25 126 101 221 207 260 51 18 157 19 219 0z m-546 -335 l0 -340 -60
0 -60 0 0 340 0 340 60 0 60 0 0 -340z"/>
</g>
</svg>
