<svg xmlns="http://www.w3.org/2000/svg" width="263" height="79" viewBox="0 0 263 79"><g fill="none" fill-rule="evenodd" opacity=".49"><path fill="#000" d="M63.765 24.595l4.137 4.027c.599.557.799 1.253.599 2.088-.24.815-.76 1.322-1.559 1.521l-5.634 1.432 1.588 5.547c.24.816.05 1.512-.57 2.088-.579.617-1.278.806-2.097.567l-5.575-1.58-1.439 5.607c-.2.795-.71 1.312-1.528 1.55-.24.04-.43.06-.57.06-.62 0-1.129-.219-1.528-.656l-4.047-4.116-4.046 4.116c-.56.597-1.259.795-2.098.597-.82-.22-1.329-.736-1.529-1.551l-1.438-5.608-5.575 1.581c-.82.239-1.519.05-2.098-.567-.62-.576-.81-1.272-.57-2.088l1.589-5.547-5.635-1.432c-.8-.199-1.319-.706-1.558-1.521-.2-.835 0-1.531.599-2.088l4.136-4.027-4.136-4.026c-.6-.557-.8-1.253-.6-2.088.24-.815.76-1.322 1.56-1.521l5.634-1.432-1.589-5.548c-.24-.815-.05-1.51.57-2.087.58-.617 1.279-.806 2.098-.567l5.575 1.58L37.869 3.3c.2-.815.71-1.322 1.529-1.52.82-.24 1.519-.05 2.098.566l4.046 4.146 4.047-4.146c.579-.597 1.278-.786 2.098-.567.819.199 1.328.706 1.528 1.521l1.439 5.608 5.575-1.581c.819-.239 1.518-.05 2.098.567.62.576.809 1.272.57 2.087l-1.59 5.548 5.635 1.432c.8.199 1.32.706 1.559 1.521.2.835 0 1.531-.6 2.088l-4.136 4.026z"/><path fill="#4A4A4A" d="M18.634 58.728h2.129l1.988 5.411h.032l1.966-5.411h2.14v7.617h-1.35v-6.122h-.022l-2.323 6.122h-.951l-2.29-6.122h-.022v6.122h-1.297v-7.617zm12.777 4.518c0-.165-.024-.323-.07-.473a1.082 1.082 0 0 0-.222-.398 1.081 1.081 0 0 0-.384-.275 1.346 1.346 0 0 0-.545-.102 1.46 1.46 0 0 0-.989.35c-.27.233-.42.532-.448.898h2.658zm1.296.581V64c0 .058-.004.115-.01.172h-3.944a1.275 1.275 0 0 0 .475.91c.137.11.292.199.465.263.173.065.353.097.54.097.324 0 .598-.06.821-.178.223-.118.407-.281.551-.489l.864.689c-.511.688-1.253 1.032-2.225 1.032-.404 0-.775-.062-1.113-.188a2.628 2.628 0 0 1-.88-.532 2.4 2.4 0 0 1-.584-.845 2.9 2.9 0 0 1-.21-1.135c0-.416.07-.794.21-1.135.14-.34.333-.631.578-.872.245-.24.535-.426.87-.559a2.921 2.921 0 0 1 1.086-.199c.36 0 .693.06.999.177.306.119.57.295.794.528.223.233.398.523.524.871s.19.755.19 1.221zm6.694-2.797c.338 0 .628.06.87.177a1.742 1.742 0 0 1 .934 1.136c.072.25.108.509.108.774v3.228h-1.296v-2.862c0-.15-.011-.308-.033-.473a1.274 1.274 0 0 0-.14-.447.929.929 0 0 0-.297-.328c-.127-.086-.294-.13-.503-.13a.993.993 0 0 0-.518.13 1.13 1.13 0 0 0-.357.333 1.425 1.425 0 0 0-.205.458 2.008 2.008 0 0 0-.065.5v2.819h-1.297v-3.12c0-.323-.077-.59-.232-.802-.155-.211-.398-.317-.73-.317a1.004 1.004 0 0 0-.858.44c-.09.13-.159.279-.205.447-.047.169-.07.34-.07.511v2.84H33.21v-5.163h1.232v.828h.021c.058-.13.135-.251.232-.366a1.81 1.81 0 0 1 .346-.312 1.65 1.65 0 0 1 .46-.22 1.92 1.92 0 0 1 .572-.081c.403 0 .738.09 1.005.269.266.18.472.416.616.71.172-.316.403-.558.691-.726a1.975 1.975 0 0 1 1.016-.253zm3.992-2.819v3.626h.033a1.903 1.903 0 0 1 .61-.527 2.298 2.298 0 0 1 1.13-.28 2.423 2.423 0 0 1 1.815.785c.222.244.395.531.518.861.122.33.183.685.183 1.065 0 .38-.059.737-.178 1.07a2.623 2.623 0 0 1-.508.872c-.22.248-.486.445-.8.592-.312.147-.667.22-1.063.22-.368 0-.712-.079-1.032-.236a1.762 1.762 0 0 1-.751-.689h-.022v.775h-1.231V58.21h1.296zm2.971 5.53c0-.2-.03-.4-.091-.597a1.666 1.666 0 0 0-.276-.533 1.382 1.382 0 0 0-.465-.381 1.416 1.416 0 0 0-.659-.146c-.237 0-.45.05-.637.15a1.632 1.632 0 0 0-.783.926 1.81 1.81 0 0 0 0 1.2c.068.197.169.375.302.532.133.158.294.285.48.382.188.097.4.145.638.145a1.375 1.375 0 0 0 1.124-.537c.122-.158.214-.338.276-.538a2.1 2.1 0 0 0 .091-.603zm5.473-.495c0-.165-.023-.323-.07-.473a1.082 1.082 0 0 0-.222-.398 1.081 1.081 0 0 0-.383-.275 1.346 1.346 0 0 0-.546-.102 1.46 1.46 0 0 0-.988.35c-.27.233-.42.532-.449.898h2.658zm1.297.581V64c0 .058-.004.115-.011.172h-3.944a1.275 1.275 0 0 0 .476.91c.136.11.291.199.464.263.173.065.353.097.54.097.325 0 .598-.06.822-.178a1.53 1.53 0 0 0 .55-.489l.865.689c-.512.688-1.253 1.032-2.226 1.032-.403 0-.774-.062-1.113-.188a2.628 2.628 0 0 1-.88-.532 2.4 2.4 0 0 1-.584-.845 2.9 2.9 0 0 1-.21-1.135c0-.416.07-.794.21-1.135.14-.34.334-.631.578-.872.245-.24.535-.426.87-.559a2.921 2.921 0 0 1 1.086-.199c.36 0 .693.06 1 .177.306.119.57.295.793.528.224.233.398.523.524.871.127.348.19.755.19 1.221zm.502-2.646h1.243v.86h.021c.145-.301.346-.545.605-.731.26-.187.562-.28.908-.28.05 0 .104.002.162.005a.6.6 0 0 1 .151.027v1.184a1.532 1.532 0 0 0-.4-.054c-.295 0-.532.054-.712.161-.18.108-.321.237-.422.388-.1.15-.17.304-.205.462a1.793 1.793 0 0 0-.054.377v2.765h-1.297V61.18zm4.83 2.56c0-.409.075-.78.222-1.113.148-.334.348-.619.6-.856.252-.236.55-.42.897-.548.345-.13.713-.194 1.102-.194.389 0 .756.065 1.102.194.345.129.644.312.896.548.252.237.452.522.6.856.148.333.221.704.221 1.113 0 .409-.073.782-.221 1.119a2.65 2.65 0 0 1-.6.866 2.74 2.74 0 0 1-.896.565 2.978 2.978 0 0 1-1.102.204c-.39 0-.757-.068-1.102-.204a2.74 2.74 0 0 1-.897-.565 2.65 2.65 0 0 1-.6-.866 2.76 2.76 0 0 1-.221-1.119zm1.319 0c0 .201.03.402.092.603.06.2.153.38.275.538.123.157.277.286.465.387.187.1.41.15.67.15.259 0 .482-.05.67-.15.187-.1.342-.23.464-.387a1.67 1.67 0 0 0 .275-.538 2.004 2.004 0 0 0 0-1.2 1.666 1.666 0 0 0-.275-.533 1.382 1.382 0 0 0-.465-.381 1.442 1.442 0 0 0-.67-.146c-.259 0-.482.049-.67.146a1.382 1.382 0 0 0-.464.381 1.666 1.666 0 0 0-.275.533 2.004 2.004 0 0 0-.092.597zm5.03-1.528h-.984v-1.032h.984v-.764c0-.309.034-.605.102-.888.069-.283.184-.532.346-.748.162-.215.376-.385.643-.51.266-.126.601-.189 1.005-.189.144 0 .264.005.361.016.098.011.197.03.298.06l-.087 1.097a2.01 2.01 0 0 0-.232-.054 1.551 1.551 0 0 0-.265-.022.85.85 0 0 0-.454.108.731.731 0 0 0-.264.28 1.19 1.19 0 0 0-.125.376 2.54 2.54 0 0 0-.032.398v.84h1.2v1.032h-1.2v4.132h-1.296v-4.132zm-59.71 7.969a1.652 1.652 0 0 0-.61-.468 1.828 1.828 0 0 0-1.27-.13c-.158.04-.302.101-.431.184-.13.082-.236.19-.319.323a.886.886 0 0 0-.124.478c0 .172.036.32.108.441a.98.98 0 0 0 .297.312c.126.086.28.162.46.226.18.065.377.13.593.194.245.079.5.169.762.269.263.1.504.233.724.398.22.165.4.373.54.624s.21.563.21.936c0 .409-.075.766-.226 1.07a2.21 2.21 0 0 1-.605.759c-.252.2-.548.351-.886.452-.339.1-.695.15-1.07.15a4.03 4.03 0 0 1-1.458-.274 2.817 2.817 0 0 1-1.167-.812l.972-.904c.188.258.438.463.751.613.314.151.621.226.924.226.158 0 .32-.02.486-.059a1.32 1.32 0 0 0 .449-.199c.133-.093.24-.21.324-.35a1.01 1.01 0 0 0 .124-.521.848.848 0 0 0-.14-.5 1.254 1.254 0 0 0-.379-.345 2.72 2.72 0 0 0-.562-.253l-.68-.226a6.761 6.761 0 0 1-.692-.258c-.23-.1-.437-.233-.62-.398a1.924 1.924 0 0 1-.45-.608c-.115-.24-.172-.54-.172-.898 0-.387.08-.721.243-1 .162-.28.374-.512.637-.695.263-.183.562-.319.897-.408.335-.09.675-.135 1.021-.135.39 0 .783.068 1.183.204.4.137.747.341 1.043.614l-.886.968zm1.184 3.421c0-.409.074-.78.222-1.113.147-.334.347-.619.6-.856.252-.236.55-.42.896-.548.346-.13.713-.194 1.102-.194.39 0 .756.065 1.102.194.346.129.645.312.897.548.252.237.452.522.6.856.147.333.221.704.221 1.113 0 .409-.074.782-.221 1.12a2.65 2.65 0 0 1-.6.865 2.74 2.74 0 0 1-.897.565 2.978 2.978 0 0 1-1.102.204c-.389 0-.756-.068-1.102-.204a2.74 2.74 0 0 1-.897-.565 2.65 2.65 0 0 1-.6-.866 2.76 2.76 0 0 1-.22-1.119zm1.318 0c0 .201.031.402.092.603.061.2.153.38.276.538.122.157.277.287.464.387.188.1.41.15.67.15.26 0 .483-.05.67-.15.187-.1.342-.23.465-.387a1.66 1.66 0 0 0 .275-.538 2.004 2.004 0 0 0 0-1.2 1.666 1.666 0 0 0-.275-.532 1.382 1.382 0 0 0-.465-.382 1.442 1.442 0 0 0-.67-.146c-.26 0-.482.049-.67.146a1.382 1.382 0 0 0-.464.382 1.666 1.666 0 0 0-.276.532 2.004 2.004 0 0 0-.092.597zm11.016-2.711c.338 0 .628.06.87.178.24.118.439.274.594.468.154.193.268.416.34.667.072.25.108.509.108.774v3.228h-1.297v-2.862c0-.15-.01-.308-.032-.473a1.274 1.274 0 0 0-.14-.447.929.929 0 0 0-.297-.328c-.127-.086-.294-.13-.503-.13a.993.993 0 0 0-.518.13 1.13 1.13 0 0 0-.357.334 1.425 1.425 0 0 0-.205.457 2.008 2.008 0 0 0-.065.5v2.819h-1.297v-3.12c0-.323-.077-.59-.232-.802-.155-.211-.398-.317-.73-.317a1.004 1.004 0 0 0-.858.441c-.09.13-.159.278-.205.446-.047.169-.07.34-.07.512v2.84h-1.297v-5.164h1.232v.828h.021c.058-.129.135-.251.232-.366a1.81 1.81 0 0 1 .346-.312 1.65 1.65 0 0 1 .46-.22 1.92 1.92 0 0 1 .572-.081c.403 0 .738.09 1.005.269.266.18.472.416.616.71.172-.316.403-.558.691-.726a1.975 1.975 0 0 1 1.016-.253zm6.326 2.216c0-.165-.024-.322-.07-.473a1.082 1.082 0 0 0-.222-.398 1.081 1.081 0 0 0-.383-.274 1.346 1.346 0 0 0-.546-.103 1.46 1.46 0 0 0-.989.35 1.27 1.27 0 0 0-.448.898h2.658zm1.296.581v.172c0 .058-.003.115-.01.173H22.29a1.275 1.275 0 0 0 .475.909c.137.11.292.199.465.263.173.065.353.097.54.097.324 0 .598-.06.821-.177.224-.119.407-.282.551-.49l.865.689c-.512.688-1.254 1.032-2.226 1.032-.403 0-.774-.062-1.113-.188a2.628 2.628 0 0 1-.88-.532 2.4 2.4 0 0 1-.584-.845 2.9 2.9 0 0 1-.21-1.135c0-.416.07-.794.21-1.135.14-.34.333-.631.578-.871.245-.24.535-.427.87-.56a2.921 2.921 0 0 1 1.086-.199c.36 0 .693.06 1 .178.305.118.57.294.793.527.224.233.398.523.524.871s.19.755.19 1.221zm2.151-1.312c0-.61.103-1.16.308-1.652.205-.491.49-.909.854-1.253.363-.344.796-.61 1.296-.796.5-.187 1.046-.28 1.637-.28a4.73 4.73 0 0 1 1.653.28c.504.186.94.452 1.307.796.368.344.654.762.86 1.253.205.492.307 1.042.307 1.652 0 .595-.102 1.138-.308 1.63a3.758 3.758 0 0 1-.859 1.27 3.904 3.904 0 0 1-1.307.828 4.499 4.499 0 0 1-1.653.295c-.59 0-1.136-.098-1.637-.295a3.856 3.856 0 0 1-1.296-.829 3.797 3.797 0 0 1-.854-1.27 4.188 4.188 0 0 1-.308-1.63zm1.48 0c0 .409.063.783.19 1.124.126.34.306.637.54.888.234.25.511.446.832.586.32.14.675.21 1.064.21s.745-.07 1.07-.21c.324-.14.603-.335.837-.586.234-.251.414-.547.54-.888.126-.34.189-.715.189-1.124 0-.395-.063-.76-.189-1.098a2.674 2.674 0 0 0-.535-.882 2.474 2.474 0 0 0-.832-.592 2.64 2.64 0 0 0-1.08-.215c-.396 0-.755.072-1.075.215a2.51 2.51 0 0 0-.827.592c-.23.251-.408.545-.535.882a3.11 3.11 0 0 0-.189 1.098zm7.245-1.334h1.242v.86h.022c.144-.3.346-.545.605-.731.26-.187.562-.28.908-.28.05 0 .104.002.162.005a.6.6 0 0 1 .151.027v1.184a1.532 1.532 0 0 0-.4-.054c-.295 0-.533.054-.713.161-.18.108-.32.237-.421.388a1.35 1.35 0 0 0-.205.462 1.793 1.793 0 0 0-.054.377v2.765H37.12v-5.164zm8.26 0v4.701c0 .466-.057.888-.173 1.264a2.445 2.445 0 0 1-.534.958 2.412 2.412 0 0 1-.913.608c-.368.143-.804.215-1.308.215a4.603 4.603 0 0 1-1.356-.215 4.17 4.17 0 0 1-.653-.27 3.153 3.153 0 0 1-.562-.365l.745-1a2.678 2.678 0 0 0 1.815.731c.31 0 .571-.045.784-.135.212-.09.382-.213.508-.37.126-.158.216-.345.27-.56.054-.215.08-.452.08-.71v-.377h-.02a1.821 1.821 0 0 1-.72.576 2.335 2.335 0 0 1-.977.199c-.39 0-.742-.072-1.059-.215a2.4 2.4 0 0 1-.805-.581 2.659 2.659 0 0 1-.513-.856 2.93 2.93 0 0 1-.184-1.038c0-.373.06-.724.179-1.054.118-.33.288-.617.507-.86.22-.245.487-.438.8-.582a2.502 2.502 0 0 1 1.053-.215c.368 0 .71.075 1.027.226.317.15.569.384.756.7h.022v-.775h1.231zm-2.766.903c-.237 0-.448.043-.632.13a1.367 1.367 0 0 0-.464.35 1.57 1.57 0 0 0-.292.52 2.01 2.01 0 0 0-.103.646 1.795 1.795 0 0 0 .395 1.125c.126.154.28.278.464.37.184.094.391.14.622.14a1.487 1.487 0 0 0 1.129-.494c.133-.15.235-.325.307-.522a1.866 1.866 0 0 0 0-1.253 1.603 1.603 0 0 0-.307-.527 1.433 1.433 0 0 0-1.119-.485zm6.791 3.605h-.032c-.13.229-.339.417-.627.564-.288.147-.616.22-.983.22-.209 0-.427-.026-.654-.08a1.95 1.95 0 0 1-.626-.269 1.556 1.556 0 0 1-.476-.495c-.126-.204-.189-.457-.189-.758 0-.387.11-.696.33-.925.22-.23.502-.406.848-.528.346-.121.73-.202 1.15-.242.422-.04.834-.059 1.238-.059v-.129c0-.323-.118-.561-.352-.715a1.487 1.487 0 0 0-.837-.232c-.274 0-.537.058-.789.172a2.124 2.124 0 0 0-.626.42l-.67-.785a2.928 2.928 0 0 1 1.02-.614 3.493 3.493 0 0 1 1.173-.204c.461 0 .841.065 1.14.194.299.129.535.297.708.505.172.208.293.441.362.7.068.258.102.516.102.774v3.142h-1.21v-.656zm-.021-1.7h-.292c-.21 0-.429.009-.66.027-.23.017-.442.057-.637.118a1.363 1.363 0 0 0-.486.258.57.57 0 0 0-.194.457.548.548 0 0 0 .291.506c.087.05.184.086.292.108.108.021.216.032.324.032.447 0 .785-.118 1.016-.355.23-.237.346-.56.346-.968v-.183zm1.993-2.808h1.232v.828h.022c.115-.258.315-.486.6-.683a1.729 1.729 0 0 1 1.01-.296c.338 0 .628.06.87.178.24.118.439.274.593.468.155.193.269.416.34.667.073.25.109.509.109.774v3.228h-1.297v-2.862c0-.15-.01-.308-.032-.473a1.274 1.274 0 0 0-.14-.447.929.929 0 0 0-.298-.328c-.126-.086-.293-.13-.502-.13-.209 0-.39.042-.54.125a1.146 1.146 0 0 0-.373.317c-.097.13-.171.278-.222.446-.05.169-.075.34-.075.512v2.84h-1.297v-5.164zm5.56 0h1.296v5.164h-1.297v-5.164zm-.184-1.754c0-.208.077-.39.232-.543a.8.8 0 0 1 .589-.232.86.86 0 0 1 .6.22.716.716 0 0 1 .243.555.716.716 0 0 1-.243.554.86.86 0 0 1-.6.22.8.8 0 0 1-.589-.23.742.742 0 0 1-.232-.544zm1.896 5.777l2.799-2.99H58.78v-1.033h4.214v1.14l-2.81 2.97h2.94v1.054H58.65v-1.14zm8.088.485h-.033c-.13.229-.338.417-.626.564-.289.147-.616.22-.984.22a2.82 2.82 0 0 1-.653-.08 1.95 1.95 0 0 1-.627-.269c-.19-.125-.35-.29-.475-.495-.126-.204-.19-.457-.19-.758 0-.387.11-.696.33-.925.22-.23.503-.406.848-.528a4.88 4.88 0 0 1 1.151-.242c.421-.04.834-.059 1.237-.059v-.129c0-.323-.117-.561-.351-.715a1.487 1.487 0 0 0-.837-.232c-.274 0-.537.058-.79.172a2.124 2.124 0 0 0-.626.42l-.67-.785a2.928 2.928 0 0 1 1.021-.614 3.493 3.493 0 0 1 1.173-.204c.46 0 .84.065 1.14.194.298.129.534.297.707.505.173.208.294.441.362.7.069.258.103.516.103.774v3.142h-1.21v-.656zm-.022-1.7h-.292c-.209 0-.428.009-.659.027-.23.017-.443.057-.637.118a1.363 1.363 0 0 0-.486.258.57.57 0 0 0-.195.457.548.548 0 0 0 .292.506c.086.05.184.086.292.108.108.021.216.032.324.032.446 0 .785-.118 1.015-.355.23-.237.346-.56.346-.968v-.183zm1.14-1.776v-1.032h.908v-1.496h1.275v1.496h1.296v1.032H70.04v2.4c0 .23.041.42.124.57.083.15.268.226.556.226.087 0 .18-.01.281-.027.101-.018.191-.045.27-.08l.044 1.01a2.139 2.139 0 0 1-.41.103c-.16.025-.31.037-.455.037-.345 0-.626-.048-.842-.145a1.277 1.277 0 0 1-.514-.398 1.47 1.47 0 0 1-.259-.58 3.364 3.364 0 0 1-.07-.706v-2.41h-.908zm3.69-1.032h1.297v5.164h-1.297v-5.164zm-.183-1.754c0-.208.077-.39.232-.543a.8.8 0 0 1 .589-.232.86.86 0 0 1 .6.22.716.716 0 0 1 .243.555.716.716 0 0 1-.244.554.86.86 0 0 1-.6.22.8.8 0 0 1-.588-.23.742.742 0 0 1-.232-.544zm2.004 4.314c0-.409.074-.78.222-1.113.147-.334.347-.619.6-.856.251-.236.55-.42.896-.548.346-.13.713-.194 1.102-.194.39 0 .756.065 1.102.194.346.129.645.312.897.548.252.237.452.522.6.856.147.333.221.704.221 1.113 0 .409-.074.782-.221 1.12a2.65 2.65 0 0 1-.6.865 2.74 2.74 0 0 1-.897.565 2.978 2.978 0 0 1-1.102.204c-.389 0-.756-.068-1.102-.204a2.74 2.74 0 0 1-.897-.565 2.65 2.65 0 0 1-.6-.866 2.76 2.76 0 0 1-.22-1.119zm1.318 0c0 .201.031.402.092.603.061.2.153.38.276.538.122.157.277.287.464.387.188.1.41.15.67.15.26 0 .483-.05.67-.15.187-.1.342-.23.465-.387a1.66 1.66 0 0 0 .275-.538 2.004 2.004 0 0 0 0-1.2 1.666 1.666 0 0 0-.275-.532 1.382 1.382 0 0 0-.465-.382 1.442 1.442 0 0 0-.67-.146c-.26 0-.482.049-.67.146a1.382 1.382 0 0 0-.464.382 1.666 1.666 0 0 0-.276.532 2.004 2.004 0 0 0-.092.597zm4.825-2.56h1.231v.828h.022c.115-.258.315-.486.6-.683a1.729 1.729 0 0 1 1.01-.296c.338 0 .628.06.87.178.24.118.439.274.594.468.155.193.268.416.34.667.072.25.108.509.108.774v3.228H82.99v-2.862c0-.15-.011-.308-.033-.473a1.274 1.274 0 0 0-.14-.447.929.929 0 0 0-.297-.328c-.126-.086-.294-.13-.503-.13-.208 0-.389.042-.54.125a1.146 1.146 0 0 0-.373.317c-.097.13-.17.278-.221.446-.05.169-.076.34-.076.512v2.84H79.51v-5.164z"/><path fill="#000" d="M220.957 25.165c-1.495-3.215-2.242-6.896-2.242-11.044h-7.757v2.858c0 1.548.954 3.155 2.863 4.822 1.909 1.667 4.288 2.789 7.136 3.364zm32.663-8.186V14.12h-7.757c0 4.148-.747 7.83-2.242 11.044 2.848-.575 5.227-1.697 7.136-3.364 1.909-1.667 2.863-3.274 2.863-4.822zm3.879-3.81v3.81c0 1.409-.42 2.828-1.258 4.257-.838 1.429-1.97 2.718-3.393 3.87-1.425 1.15-3.172 2.118-5.242 2.902a20.88 20.88 0 0 1-6.53 1.325 16.039 16.039 0 0 1-2.878 2.828c-.768.674-1.298 1.394-1.591 2.158-.293.764-.44 1.652-.44 2.664 0 1.072.308 1.975.925 2.709.616.734 1.6 1.101 2.954 1.101 1.515 0 2.863.452 4.045 1.355s1.772 2.039 1.772 3.408v1.906c0 .277-.09.506-.272.684a.953.953 0 0 1-.697.268h-25.21a.953.953 0 0 1-.697-.268.919.919 0 0 1-.272-.684v-1.906c0-1.369.59-2.505 1.772-3.408s2.53-1.355 4.045-1.355c1.354 0 2.338-.367 2.954-1.101.617-.734.925-1.637.925-2.709 0-1.012-.147-1.9-.44-2.664-.293-.764-.823-1.484-1.59-2.158a16.039 16.039 0 0 1-2.879-2.828 20.88 20.88 0 0 1-6.53-1.325c-2.07-.784-3.817-1.751-5.242-2.902-1.424-1.152-2.555-2.441-3.393-3.87-.838-1.43-1.258-2.848-1.258-4.257v-3.81c0-.794.283-1.47.849-2.025.565-.555 1.252-.833 2.06-.833h8.727V7.453c0-1.31.474-2.431 1.424-3.364.95-.933 2.09-1.399 3.424-1.399h17.452c1.334 0 2.475.466 3.424 1.4.95.932 1.424 2.053 1.424 3.363v2.858h8.727c.808 0 1.495.278 2.06.833a2.73 2.73 0 0 1 .849 2.024z"/><path fill="#4A4A4A" d="M207.38 58.728h1.177l3.295 7.617h-1.556l-.713-1.743h-3.316l-.692 1.743h-1.523l3.327-7.617zm1.728 4.712l-1.178-3.098-1.199 3.098h2.377zm1.886-2.259h1.404l1.08 3.701h.022l1.113-3.701h1.383l1.124 3.701h.021l1.102-3.701h1.35l-1.793 5.164h-1.318l-1.177-3.615h-.022l-1.167 3.615h-1.318l-1.804-5.164zm11.89 4.508h-.032c-.13.23-.339.418-.627.565-.288.147-.616.22-.983.22-.209 0-.427-.027-.654-.08a1.95 1.95 0 0 1-.626-.27 1.562 1.562 0 0 1-.476-.494c-.126-.205-.189-.458-.189-.759 0-.387.11-.695.33-.925.22-.23.502-.405.848-.527s.73-.203 1.15-.242c.422-.04.834-.06 1.238-.06v-.129c0-.322-.118-.56-.352-.715a1.487 1.487 0 0 0-.837-.231c-.274 0-.537.057-.789.172a2.124 2.124 0 0 0-.626.42l-.67-.786a2.928 2.928 0 0 1 1.02-.613 3.493 3.493 0 0 1 1.173-.205c.461 0 .841.065 1.14.194.299.13.535.298.708.506.172.208.293.44.362.699.068.258.102.516.102.775v3.141h-1.21v-.656zm-.021-1.7h-.292c-.21 0-.429.009-.66.027-.23.018-.442.057-.637.118a1.363 1.363 0 0 0-.486.258.57.57 0 0 0-.194.458.548.548 0 0 0 .291.505c.087.05.184.086.292.108.108.021.216.032.324.032.447 0 .785-.118 1.016-.355.23-.236.346-.56.346-.968v-.183zm1.993-2.808h1.243v.86h.021c.144-.3.346-.544.605-.73.26-.187.562-.28.908-.28.05 0 .104.001.162.005a.6.6 0 0 1 .151.027v1.183a1.532 1.532 0 0 0-.4-.054c-.295 0-.532.054-.713.162a1.27 1.27 0 0 0-.42.387c-.102.15-.17.305-.206.463a1.793 1.793 0 0 0-.054.376v2.765h-1.297v-5.164zm8.26 5.164h-1.231v-.774h-.022c-.18.3-.43.53-.75.688a2.306 2.306 0 0 1-1.032.237c-.397 0-.751-.074-1.065-.22a2.443 2.443 0 0 1-.8-.592 2.623 2.623 0 0 1-.507-.872 3.166 3.166 0 0 1-.178-1.07c0-.38.061-.736.183-1.066a2.61 2.61 0 0 1 .519-.86 2.423 2.423 0 0 1 1.815-.786 2.31 2.31 0 0 1 1.13.28 1.93 1.93 0 0 1 .61.528h.032v-3.626h1.296v8.133zm-4.267-2.603c0 .2.03.401.092.602.06.2.153.38.275.538a1.375 1.375 0 0 0 1.124.538c.237 0 .45-.048.637-.145a1.56 1.56 0 0 0 .481-.382c.133-.158.234-.336.303-.533a1.81 1.81 0 0 0 0-1.2 1.632 1.632 0 0 0-.783-.925c-.188-.1-.4-.15-.638-.15a1.42 1.42 0 0 0-.66.145 1.382 1.382 0 0 0-.464.382 1.666 1.666 0 0 0-.275.532 2.004 2.004 0 0 0-.092.598zm8.746-.495c0-.165-.023-.323-.07-.474a1.082 1.082 0 0 0-.222-.398 1.081 1.081 0 0 0-.383-.274 1.346 1.346 0 0 0-.546-.102 1.46 1.46 0 0 0-.988.35c-.27.232-.42.532-.449.898h2.658zm1.297.58V64c0 .057-.004.115-.011.172h-3.944a1.275 1.275 0 0 0 .476.909c.137.111.291.2.464.264.173.064.353.096.54.096.325 0 .598-.059.822-.177.223-.118.407-.282.55-.49l.865.689c-.511.689-1.253 1.033-2.226 1.033-.403 0-.774-.063-1.112-.188a2.628 2.628 0 0 1-.881-.533 2.4 2.4 0 0 1-.583-.845 2.9 2.9 0 0 1-.211-1.135c0-.416.07-.794.21-1.135.141-.34.334-.63.579-.871.244-.24.534-.427.87-.56a2.921 2.921 0 0 1 1.085-.199c.36 0 .693.06 1 .178.306.118.57.294.794.527.223.233.398.524.524.872.126.347.189.754.189 1.22zm5.775 2.518h-1.232v-.774h-.021c-.18.3-.43.53-.751.688-.32.158-.665.237-1.032.237-.396 0-.75-.074-1.064-.22a2.443 2.443 0 0 1-.8-.592 2.623 2.623 0 0 1-.508-.872 3.166 3.166 0 0 1-.178-1.07c0-.38.061-.736.184-1.066a2.59 2.59 0 0 1 .518-.86 2.423 2.423 0 0 1 1.816-.786 2.31 2.31 0 0 1 1.129.28 1.972 1.972 0 0 1 .61.528h.032v-3.626h1.297v8.133zm-4.268-2.603c0 .2.03.401.092.602.061.2.153.38.276.538a1.375 1.375 0 0 0 1.124.538c.237 0 .45-.048.637-.145a1.56 1.56 0 0 0 .48-.382c.134-.158.235-.336.303-.533a1.81 1.81 0 0 0 0-1.2 1.632 1.632 0 0 0-.783-.925c-.188-.1-.4-.15-.638-.15-.252 0-.472.048-.659.145a1.382 1.382 0 0 0-.464.382 1.666 1.666 0 0 0-.276.532 2.004 2.004 0 0 0-.092.598zm6.3-1.528V61.18h.907v-1.495h1.275v1.495h1.297v1.033h-1.297v2.399c0 .23.042.42.125.57.082.15.268.226.556.226.086 0 .18-.009.28-.027.102-.018.192-.045.271-.08l.043 1.01a2.139 2.139 0 0 1-.41.103c-.159.025-.31.038-.454.038-.346 0-.627-.049-.843-.145a1.277 1.277 0 0 1-.513-.399 1.47 1.47 0 0 1-.26-.58 3.364 3.364 0 0 1-.07-.705v-2.41h-.907zm6.553-1.184c.339 0 .629.06.87.178s.44.274.594.468c.155.194.268.416.34.667a2.8 2.8 0 0 1 .108.775v3.227h-1.296v-2.84c0-.15-.01-.307-.033-.468a1.344 1.344 0 0 0-.135-.441.882.882 0 0 0-.291-.328c-.126-.086-.294-.13-.503-.13-.209 0-.389.04-.54.119a1.117 1.117 0 0 0-.378.317 1.45 1.45 0 0 0-.227.447 1.72 1.72 0 0 0-.076.505v2.82h-1.296v-8.134h1.296v3.69h.022a1.24 1.24 0 0 1 .222-.318 1.745 1.745 0 0 1 .783-.478c.166-.05.346-.076.54-.076zm2.696.151h1.297v5.164h-1.297v-5.164zm-.184-1.754c0-.208.078-.389.233-.543a.8.8 0 0 1 .589-.231.86.86 0 0 1 .6.22.716.716 0 0 1 .242.554.716.716 0 0 1-.243.554.86.86 0 0 1-.6.221.8.8 0 0 1-.588-.231.742.742 0 0 1-.233-.544zm5.149 3.131a1.495 1.495 0 0 0-.475-.393 1.343 1.343 0 0 0-.66-.166c-.208 0-.4.043-.572.129a.445.445 0 0 0-.26.43c0 .201.096.343.287.425.19.083.47.167.837.253.195.043.391.1.59.172.197.072.377.167.54.285.161.119.293.266.394.441.1.176.151.39.151.64 0 .316-.06.583-.178.802a1.51 1.51 0 0 1-.476.532 2.006 2.006 0 0 1-.691.296 3.6 3.6 0 0 1-.816.092 3.25 3.25 0 0 1-1.178-.22 2.49 2.49 0 0 1-.95-.63l.853-.796c.144.186.332.34.562.462.23.122.486.183.767.183.094 0 .19-.01.286-.032a.978.978 0 0 0 .27-.102.558.558 0 0 0 .2-.189.529.529 0 0 0 .076-.29.477.477 0 0 0-.297-.463c-.198-.093-.495-.186-.891-.28a4.3 4.3 0 0 1-.568-.166 1.854 1.854 0 0 1-.491-.27 1.248 1.248 0 0 1-.346-.413 1.31 1.31 0 0 1-.13-.614c0-.286.06-.534.179-.742.119-.208.275-.378.47-.51.194-.134.414-.232.659-.297a2.98 2.98 0 0 1 .756-.097c.375 0 .74.065 1.097.194.356.13.639.326.848.592l-.843.742zm-56.122 9.518h-.983v-1.033h.983v-.764c0-.308.035-.604.103-.887.068-.284.184-.533.346-.748a1.68 1.68 0 0 1 .643-.511c.266-.126.601-.188 1.004-.188.144 0 .265.005.362.016.098.01.197.03.297.059l-.086 1.097a2.01 2.01 0 0 0-.232-.053 1.551 1.551 0 0 0-.265-.022.85.85 0 0 0-.454.108.731.731 0 0 0-.265.28 1.19 1.19 0 0 0-.124.376 2.54 2.54 0 0 0-.032.398v.84h1.2v1.032h-1.2v4.131h-1.297v-4.131zm2.243 1.528c0-.41.073-.78.221-1.114.148-.333.348-.618.6-.855s.55-.42.896-.549a3.132 3.132 0 0 1 1.102-.194c.39 0 .757.065 1.103.194.345.13.644.312.896.549.252.237.452.522.6.855.148.334.221.705.221 1.114 0 .408-.073.781-.221 1.119a2.65 2.65 0 0 1-.6.866 2.74 2.74 0 0 1-.896.564 2.978 2.978 0 0 1-1.103.205c-.388 0-.756-.068-1.102-.205a2.74 2.74 0 0 1-.896-.564 2.65 2.65 0 0 1-.6-.866 2.76 2.76 0 0 1-.221-1.12zm1.318 0c0 .2.03.401.092.602.06.201.153.38.275.538.123.158.277.287.465.387.187.1.41.151.67.151.259 0 .482-.05.67-.15.187-.101.341-.23.464-.388a1.66 1.66 0 0 0 .275-.538 2.004 2.004 0 0 0 0-1.2 1.666 1.666 0 0 0-.275-.532 1.382 1.382 0 0 0-.465-.382 1.442 1.442 0 0 0-.67-.145c-.259 0-.482.048-.67.145a1.382 1.382 0 0 0-.464.382 1.666 1.666 0 0 0-.275.533 2.004 2.004 0 0 0-.092.597zm4.824-2.56h1.243v.86h.021c.144-.301.346-.545.605-.732.26-.186.562-.28.908-.28.05 0 .104.002.162.006a.6.6 0 0 1 .151.027v1.183a1.532 1.532 0 0 0-.4-.054c-.295 0-.533.054-.713.162-.18.107-.32.236-.421.387-.1.15-.17.305-.205.463a1.793 1.793 0 0 0-.054.376v2.765h-1.297v-5.164zm10.405 5.163h-1.231v-.774h-.022c-.18.3-.43.53-.75.688a2.307 2.307 0 0 1-1.033.237c-.396 0-.75-.074-1.064-.22a2.443 2.443 0 0 1-.8-.592 2.623 2.623 0 0 1-.507-.872 3.166 3.166 0 0 1-.178-1.07c0-.38.06-.736.183-1.065.123-.33.296-.617.519-.861a2.423 2.423 0 0 1 1.815-.786 2.31 2.31 0 0 1 1.13.28 1.977 1.977 0 0 1 .609.528h.033v-3.626h1.296v8.133zm-4.267-2.603c0 .2.03.401.092.602.06.201.153.38.275.538a1.375 1.375 0 0 0 1.124.538c.237 0 .45-.048.637-.145a1.56 1.56 0 0 0 .481-.382c.133-.158.234-.335.302-.533a1.81 1.81 0 0 0 0-1.2 1.632 1.632 0 0 0-.783-.925c-.187-.1-.4-.15-.637-.15a1.42 1.42 0 0 0-.66.145 1.382 1.382 0 0 0-.464.382 1.666 1.666 0 0 0-.275.533 2.004 2.004 0 0 0-.092.597zm4.792 0c0-.41.074-.78.221-1.114.148-.333.348-.618.6-.855s.55-.42.897-.549a3.124 3.124 0 0 1 1.102-.194c.389 0 .756.065 1.102.194.345.13.644.312.896.549.253.237.452.522.6.855.148.334.222.705.222 1.114 0 .408-.074.781-.222 1.119a2.65 2.65 0 0 1-.6.866 2.74 2.74 0 0 1-.896.564 2.978 2.978 0 0 1-1.102.205c-.39 0-.757-.068-1.102-.205a2.74 2.74 0 0 1-.897-.564 2.65 2.65 0 0 1-.6-.866 2.76 2.76 0 0 1-.221-1.12zm1.318 0c0 .2.03.401.092.602.061.201.153.38.275.538.123.158.278.287.465.387.187.1.41.151.67.151.259 0 .482-.05.67-.15.187-.101.342-.23.464-.388.123-.158.214-.337.276-.538a2.004 2.004 0 0 0 0-1.2 1.666 1.666 0 0 0-.276-.532 1.382 1.382 0 0 0-.464-.382 1.442 1.442 0 0 0-.67-.145c-.26 0-.483.048-.67.145a1.382 1.382 0 0 0-.465.382 1.666 1.666 0 0 0-.275.533 2.004 2.004 0 0 0-.092.597zm4.846-2.56h1.296v5.163h-1.296v-5.164zm-.184-1.755c0-.208.078-.389.233-.543a.8.8 0 0 1 .588-.231.86.86 0 0 1 .6.22.716.716 0 0 1 .243.554.716.716 0 0 1-.243.555.86.86 0 0 1-.6.22.8.8 0 0 1-.588-.231.742.742 0 0 1-.233-.544zm2.307 1.754h1.232v.829h.022c.115-.259.315-.486.6-.684a1.729 1.729 0 0 1 1.01-.296c.338 0 .628.06.87.178.24.118.439.274.593.468.155.194.269.416.34.667.073.251.109.51.109.775v3.227h-1.297v-2.862c0-.15-.01-.308-.032-.473a1.274 1.274 0 0 0-.14-.446.929.929 0 0 0-.298-.329c-.126-.086-.293-.129-.502-.129-.209 0-.389.042-.54.124a1.146 1.146 0 0 0-.373.317c-.097.13-.171.278-.221.447-.05.168-.076.339-.076.511v2.84h-1.297v-5.164zm10.81 0v4.702c0 .466-.057.887-.172 1.264a2.445 2.445 0 0 1-.535.957 2.412 2.412 0 0 1-.913.608c-.368.144-.803.215-1.308.215a4.603 4.603 0 0 1-1.356-.215 4.17 4.17 0 0 1-.653-.269 3.153 3.153 0 0 1-.562-.366l.746-1a2.678 2.678 0 0 0 1.815.731c.31 0 .57-.044.783-.134.212-.09.382-.213.508-.371s.216-.345.27-.56c.054-.215.08-.452.08-.71v-.376h-.02a1.821 1.821 0 0 1-.72.575 2.335 2.335 0 0 1-.977.2c-.389 0-.742-.072-1.059-.216a2.4 2.4 0 0 1-.805-.58 2.659 2.659 0 0 1-.513-.856 2.93 2.93 0 0 1-.184-1.038c0-.373.06-.725.179-1.055.119-.33.288-.617.508-.86a2.41 2.41 0 0 1 .799-.581 2.502 2.502 0 0 1 1.053-.216c.368 0 .71.076 1.027.226.317.151.569.384.756.7h.022v-.775h1.231zm-2.765.904c-.238 0-.449.043-.633.129a1.367 1.367 0 0 0-.464.35 1.57 1.57 0 0 0-.292.521 2.001 2.001 0 0 0-.102.646 1.795 1.795 0 0 0 .394 1.124c.126.154.28.278.464.371.184.094.391.14.622.14.237 0 .452-.045.643-.134a1.5 1.5 0 0 0 .486-.36c.133-.151.236-.325.308-.522a1.866 1.866 0 0 0 0-1.253 1.603 1.603 0 0 0-.308-.528 1.433 1.433 0 0 0-1.118-.484zm4.776.129v-1.033h.907v-1.495h1.275v1.495h1.297v1.033h-1.297v2.4c0 .229.042.419.124.57.083.15.269.225.557.225.086 0 .18-.009.28-.027a1.1 1.1 0 0 0 .27-.08l.044 1.011a2.139 2.139 0 0 1-.41.102c-.159.025-.31.038-.454.038-.346 0-.627-.049-.843-.145a1.277 1.277 0 0 1-.513-.398 1.47 1.47 0 0 1-.26-.581 3.364 3.364 0 0 1-.07-.705v-2.41h-.907zm6.553-1.184c.338 0 .628.06.87.178.241.118.439.274.594.468.155.194.268.416.34.667a2.8 2.8 0 0 1 .108.775v3.227h-1.296v-2.84c0-.15-.011-.307-.033-.468a1.344 1.344 0 0 0-.135-.441.882.882 0 0 0-.291-.328c-.126-.086-.294-.13-.503-.13-.209 0-.389.04-.54.119a1.117 1.117 0 0 0-.378.317 1.408 1.408 0 0 0-.227.447 1.72 1.72 0 0 0-.076.505v2.82h-1.296v-8.134h1.296v3.69h.022a1.24 1.24 0 0 1 .221-.317 1.745 1.745 0 0 1 .784-.48c.165-.05.345-.075.54-.075zm5.894 4.659h-.032c-.13.23-.339.418-.627.565-.288.147-.616.22-.983.22a2.87 2.87 0 0 1-.654-.08 1.95 1.95 0 0 1-.627-.27 1.57 1.57 0 0 1-.475-.494c-.126-.205-.189-.457-.189-.759 0-.387.11-.695.33-.925.22-.23.502-.405.848-.527a4.764 4.764 0 0 1 1.15-.242c.422-.04.834-.06 1.237-.06v-.128c0-.323-.117-.562-.35-.716a1.487 1.487 0 0 0-.838-.231c-.274 0-.537.057-.789.172a2.124 2.124 0 0 0-.626.42l-.67-.786a2.928 2.928 0 0 1 1.02-.613 3.493 3.493 0 0 1 1.173-.205c.461 0 .84.065 1.14.194.299.13.535.298.707.506.173.208.294.44.362.7.069.257.103.516.103.774v3.141h-1.21v-.656zm-.022-1.7h-.291c-.21 0-.429.01-.66.027-.23.018-.442.057-.637.118a1.363 1.363 0 0 0-.486.259.57.57 0 0 0-.194.457.548.548 0 0 0 .291.505c.087.05.184.087.292.108.108.022.216.032.324.032.447 0 .785-.118 1.016-.355.23-.236.345-.56.345-.968v-.183zm1.14-1.775v-1.033h.908v-1.495h1.275v1.495h1.297v1.033h-1.297v2.4c0 .229.042.419.124.57.083.15.269.225.557.225.086 0 .18-.009.28-.027.101-.018.192-.044.27-.08l.044 1.011a2.139 2.139 0 0 1-.41.102c-.159.025-.31.038-.454.038-.346 0-.627-.049-.843-.145a1.277 1.277 0 0 1-.513-.398 1.47 1.47 0 0 1-.26-.581 3.364 3.364 0 0 1-.07-.705v-2.41h-.907zM109.367 58.728h1.178l3.295 7.617h-1.556l-.713-1.743h-3.317l-.691 1.743h-1.523l3.327-7.617zm1.729 4.712l-1.178-3.098-1.199 3.098h2.377zm10.027-2.926a1.742 1.742 0 0 0-.789-.597 2.64 2.64 0 0 0-2.031.027c-.324.143-.603.34-.837.591a2.627 2.627 0 0 0-.54.882c-.126.337-.19.703-.19 1.098 0 .416.062.796.184 1.14.123.344.297.64.524.888.227.247.499.44.816.575a2.67 2.67 0 0 0 1.07.205c.41 0 .774-.08 1.09-.242a2.13 2.13 0 0 0 .768-.64l1.091.763a3.494 3.494 0 0 1-1.242.985c-.49.233-1.063.35-1.718.35a4.457 4.457 0 0 1-1.648-.296 3.797 3.797 0 0 1-1.291-.829 3.77 3.77 0 0 1-.843-1.27 4.253 4.253 0 0 1-.302-1.63c0-.609.106-1.16.319-1.65.212-.492.504-.91.875-1.254.37-.344.808-.61 1.312-.796a4.698 4.698 0 0 1 2.41-.21c.266.047.522.118.767.215s.475.217.691.36c.216.144.4.316.551.517l-1.037.818zm4.706 2.732c0-.165-.024-.322-.07-.473a1.082 1.082 0 0 0-.222-.398 1.081 1.081 0 0 0-.384-.274 1.346 1.346 0 0 0-.545-.103 1.46 1.46 0 0 0-.989.35 1.27 1.27 0 0 0-.448.898h2.658zm1.296.581V64c0 .058-.003.115-.01.173h-3.944a1.275 1.275 0 0 0 .475.909c.137.11.292.199.465.263.173.065.353.097.54.097.324 0 .598-.06.821-.177.223-.119.407-.282.551-.49l.864.689c-.51.688-1.253 1.032-2.225 1.032-.404 0-.774-.062-1.113-.188a2.628 2.628 0 0 1-.88-.532 2.4 2.4 0 0 1-.584-.845 2.9 2.9 0 0 1-.21-1.135c0-.416.07-.794.21-1.135.14-.34.333-.631.578-.871.245-.24.535-.427.87-.56a2.921 2.921 0 0 1 1.086-.199c.36 0 .693.06.999.178.306.118.57.294.794.527.223.233.398.523.524.871s.19.755.19 1.221zm.503-2.646h1.242v.86h.022c.144-.3.346-.545.605-.731.26-.187.562-.28.908-.28.05 0 .104.002.162.005a.6.6 0 0 1 .151.027v1.184a1.532 1.532 0 0 0-.4-.054c-.295 0-.533.054-.713.161-.18.108-.32.237-.421.388-.101.15-.17.305-.206.462a1.793 1.793 0 0 0-.054.377v2.765h-1.296V61.18zm2.307 1.033V61.18h.908v-1.496h1.275v1.496h1.296v1.033h-1.296v2.399c0 .23.04.42.124.57.083.15.268.226.556.226.087 0 .18-.01.281-.027.1-.018.191-.045.27-.08l.043 1.01a2.139 2.139 0 0 1-.41.103 2.92 2.92 0 0 1-.454.037c-.346 0-.627-.048-.843-.145a1.277 1.277 0 0 1-.513-.398 1.47 1.47 0 0 1-.26-.58 3.364 3.364 0 0 1-.07-.706v-2.41h-.907zm3.69-1.033h1.297v5.164h-1.297V61.18zm-.184-1.754a.74.74 0 0 1 .233-.543.8.8 0 0 1 .589-.232.86.86 0 0 1 .6.221.716.716 0 0 1 .242.554.716.716 0 0 1-.243.554.86.86 0 0 1-.6.22.8.8 0 0 1-.588-.23.742.742 0 0 1-.233-.544zm5.96 1.754h1.296v5.164H139.4V61.18zm-.184-1.754c0-.208.077-.39.232-.543a.8.8 0 0 1 .589-.232.86.86 0 0 1 .6.221.716.716 0 0 1 .243.554.716.716 0 0 1-.244.554.86.86 0 0 1-.6.22.8.8 0 0 1-.588-.23.742.742 0 0 1-.232-.544zm-3.263 2.787h-.983V61.18h.983v-.764c0-.309.034-.604.102-.888a2.02 2.02 0 0 1 .346-.747 1.69 1.69 0 0 1 .643-.512c.267-.125.601-.188 1.005-.188.144 0 .265.006.362.016.097.011.196.03.297.06l-.087 1.097a2.01 2.01 0 0 0-.232-.054 1.551 1.551 0 0 0-.265-.021.85.85 0 0 0-.453.107.731.731 0 0 0-.265.28 1.19 1.19 0 0 0-.124.376 2.54 2.54 0 0 0-.033.399v.839h1.2v1.033h-1.2v4.13h-1.296v-4.13zm8.995.398a1.142 1.142 0 0 0-.454-.36 1.41 1.41 0 0 0-1.243 0c-.18.096-.33.223-.448.381a1.642 1.642 0 0 0-.265.533 2.12 2.12 0 0 0-.086.597c0 .2.03.4.092.597.061.197.153.375.275.532a1.36 1.36 0 0 0 1.102.527c.202 0 .404-.039.605-.118.202-.079.364-.193.487-.344l.81.818a2.15 2.15 0 0 1-.827.532 3.07 3.07 0 0 1-1.086.188 3.21 3.21 0 0 1-1.085-.182 2.578 2.578 0 0 1-.897-.538 2.552 2.552 0 0 1-.605-.861 2.843 2.843 0 0 1-.222-1.151c0-.416.074-.793.222-1.13a2.59 2.59 0 0 1 1.48-1.41c.335-.128.693-.193 1.075-.193s.751.072 1.107.215c.357.144.64.34.849.592l-.886.775zm4.198 3.077h-.033c-.13.23-.338.417-.627.564a2.13 2.13 0 0 1-.983.22c-.209 0-.426-.026-.653-.08a1.95 1.95 0 0 1-.627-.269c-.19-.125-.35-.29-.475-.495-.126-.204-.19-.457-.19-.758 0-.387.11-.696.33-.925.22-.23.502-.406.848-.528.346-.121.73-.202 1.15-.242.422-.039.835-.059 1.238-.059v-.129c0-.323-.117-.561-.351-.715a1.487 1.487 0 0 0-.838-.232c-.273 0-.536.058-.788.173a2.124 2.124 0 0 0-.627.42l-.67-.786a2.928 2.928 0 0 1 1.021-.614 3.493 3.493 0 0 1 1.172-.204c.461 0 .841.065 1.14.194.3.129.535.297.708.505.173.208.294.441.362.7.068.258.103.516.103.774v3.142h-1.21v-.656zm-.022-1.7h-.292c-.209 0-.428.009-.659.027a2.87 2.87 0 0 0-.637.118 1.363 1.363 0 0 0-.486.258.57.57 0 0 0-.195.457.548.548 0 0 0 .292.506c.086.05.183.086.291.108.109.021.217.032.325.032.446 0 .785-.118 1.015-.355.23-.237.346-.56.346-.968v-.183zm1.14-1.775V61.18h.908v-1.496h1.275v1.496h1.296v1.033h-1.296v2.399c0 .23.041.42.124.57.083.15.268.226.556.226.087 0 .18-.01.281-.027.101-.018.191-.045.27-.08l.043 1.01a2.139 2.139 0 0 1-.41.103 2.92 2.92 0 0 1-.454.037c-.346 0-.626-.048-.843-.145a1.277 1.277 0 0 1-.513-.398 1.47 1.47 0 0 1-.26-.58 3.364 3.364 0 0 1-.07-.706v-2.41h-.907zm3.69-1.033h1.297v5.164h-1.297V61.18zm-.183-1.754c0-.208.077-.39.232-.543a.8.8 0 0 1 .589-.232.86.86 0 0 1 .6.221.716.716 0 0 1 .242.554.716.716 0 0 1-.243.554.86.86 0 0 1-.6.22.8.8 0 0 1-.588-.23.742.742 0 0 1-.232-.544zm2.004 4.314c0-.409.074-.78.222-1.113.147-.334.347-.619.6-.856.251-.236.55-.42.896-.548.346-.13.713-.194 1.102-.194.389 0 .756.065 1.102.194.346.129.645.312.897.548.252.237.452.522.6.856.147.333.22.704.22 1.113 0 .41-.073.782-.22 1.12a2.65 2.65 0 0 1-.6.865 2.74 2.74 0 0 1-.897.565 2.978 2.978 0 0 1-1.102.204c-.389 0-.756-.068-1.102-.204a2.74 2.74 0 0 1-.897-.565 2.65 2.65 0 0 1-.6-.866 2.76 2.76 0 0 1-.22-1.119zm1.318 0c0 .201.03.402.092.603.061.2.153.38.276.538.122.157.277.287.464.387.187.1.41.15.67.15.26 0 .483-.05.67-.15.187-.1.342-.23.464-.387.123-.158.215-.337.276-.538a2.004 2.004 0 0 0 0-1.2 1.666 1.666 0 0 0-.276-.532 1.382 1.382 0 0 0-.464-.382 1.442 1.442 0 0 0-.67-.146c-.26 0-.483.049-.67.146a1.382 1.382 0 0 0-.464.382 1.666 1.666 0 0 0-.276.532 2.004 2.004 0 0 0-.092.597zm4.825-2.56h1.231v.828h.022c.115-.258.315-.486.6-.683a1.729 1.729 0 0 1 1.01-.296c.338 0 .628.06.87.178.24.118.439.274.594.468.155.193.268.416.34.667.072.25.108.509.108.774v3.228h-1.296v-2.862c0-.15-.011-.308-.033-.473a1.274 1.274 0 0 0-.14-.447.929.929 0 0 0-.297-.328c-.126-.086-.294-.13-.503-.13-.209 0-.389.042-.54.125a1.146 1.146 0 0 0-.373.317c-.097.13-.17.278-.221.447a1.78 1.78 0 0 0-.076.51v2.84h-1.296v-5.163zm-56.546 7.409h4.937v1.183h-3.576v2.087h3.37V73h-3.37v3.207h-1.361V68.59zm4.554 5.013c0-.409.074-.78.222-1.113.147-.334.347-.619.6-.856.251-.236.55-.42.896-.548.346-.13.713-.194 1.102-.194.389 0 .756.065 1.102.194.346.129.645.312.897.548.252.237.452.522.6.856.147.333.22.704.22 1.113 0 .41-.073.782-.22 1.12a2.65 2.65 0 0 1-.6.865 2.74 2.74 0 0 1-.897.565 2.978 2.978 0 0 1-1.102.205c-.389 0-.756-.069-1.102-.205a2.74 2.74 0 0 1-.897-.565 2.65 2.65 0 0 1-.6-.866 2.76 2.76 0 0 1-.22-1.119zm1.318 0c0 .201.03.402.092.603.061.2.153.38.276.538.122.158.277.287.464.387.187.1.41.15.67.15.26 0 .483-.05.67-.15.187-.1.342-.23.464-.387.123-.158.215-.337.276-.538a2.004 2.004 0 0 0 0-1.2 1.666 1.666 0 0 0-.276-.532 1.382 1.382 0 0 0-.464-.382 1.442 1.442 0 0 0-.67-.146c-.26 0-.483.049-.67.146a1.382 1.382 0 0 0-.464.382 1.666 1.666 0 0 0-.276.532 2.004 2.004 0 0 0-.092.597zm4.825-2.56h1.242v.86h.022c.144-.3.345-.545.605-.731a1.51 1.51 0 0 1 .907-.28c.05 0 .105.002.162.006a.6.6 0 0 1 .152.026v1.184a1.532 1.532 0 0 0-.4-.054c-.295 0-.533.054-.713.161a1.311 1.311 0 0 0-.627.85 1.793 1.793 0 0 0-.054.377v2.765h-1.296v-5.164zm9.098-.86a1.652 1.652 0 0 0-.61-.469 1.828 1.828 0 0 0-1.27-.129c-.159.04-.303.1-.433.183-.13.082-.235.19-.318.323a.886.886 0 0 0-.125.478c0 .173.037.32.109.441a.98.98 0 0 0 .297.312c.126.087.279.162.459.226.18.065.378.13.594.194.245.079.499.169.762.269s.504.233.724.398c.22.165.4.373.54.624s.21.563.21.936c0 .409-.075.766-.226 1.07a2.21 2.21 0 0 1-.605.76c-.253.2-.548.35-.886.45a3.725 3.725 0 0 1-1.07.152 4.03 4.03 0 0 1-1.459-.275 2.817 2.817 0 0 1-1.166-.812l.972-.904c.187.258.438.463.75.613.314.151.622.226.925.226.158 0 .32-.02.486-.059.166-.04.315-.106.448-.199.133-.093.242-.21.324-.35a1.01 1.01 0 0 0 .125-.521.848.848 0 0 0-.14-.5 1.254 1.254 0 0 0-.379-.345 2.72 2.72 0 0 0-.562-.253l-.68-.226a6.761 6.761 0 0 1-.692-.258 2.28 2.28 0 0 1-.621-.398 1.924 1.924 0 0 1-.449-.608c-.115-.24-.172-.54-.172-.898 0-.387.08-.72.243-1 .162-.28.374-.512.637-.695.263-.182.562-.319.897-.408.335-.09.675-.135 1.02-.135.39 0 .784.068 1.184.205.4.136.747.34 1.042.613l-.885.968zm1.183 3.42c0-.409.074-.78.222-1.113.147-.334.347-.619.6-.856.251-.236.55-.42.896-.548.346-.13.713-.194 1.102-.194.389 0 .756.065 1.102.194.346.129.645.312.897.548.252.237.452.522.6.856.147.333.22.704.22 1.113 0 .41-.073.782-.22 1.12a2.65 2.65 0 0 1-.6.865 2.74 2.74 0 0 1-.897.565 2.978 2.978 0 0 1-1.102.205c-.389 0-.756-.069-1.102-.205a2.74 2.74 0 0 1-.897-.565 2.65 2.65 0 0 1-.6-.866 2.76 2.76 0 0 1-.221-1.119zm1.318 0c0 .201.03.402.092.603.061.2.153.38.275.538.123.158.278.287.465.387.187.1.41.15.67.15.26 0 .482-.05.67-.15.187-.1.342-.23.464-.387.123-.158.215-.337.276-.538a2.004 2.004 0 0 0 0-1.2 1.666 1.666 0 0 0-.276-.532 1.382 1.382 0 0 0-.464-.382 1.442 1.442 0 0 0-.67-.146c-.26 0-.483.049-.67.146a1.382 1.382 0 0 0-.465.382 1.666 1.666 0 0 0-.275.532 2.004 2.004 0 0 0-.092.597zm11.015-2.71c.339 0 .629.058.87.177a1.7 1.7 0 0 1 .594.468c.155.193.269.416.34.667.073.25.109.509.109.774v3.228H139.3v-2.862c0-.15-.01-.308-.032-.473a1.274 1.274 0 0 0-.14-.447.929.929 0 0 0-.298-.328c-.126-.086-.293-.129-.502-.129a.993.993 0 0 0-.519.13 1.13 1.13 0 0 0-.356.333 1.425 1.425 0 0 0-.206.457 2.008 2.008 0 0 0-.064.5v2.819h-1.297v-3.12c0-.323-.077-.59-.232-.802-.155-.211-.398-.317-.73-.317a1.004 1.004 0 0 0-.858.441c-.09.13-.159.278-.206.447-.047.168-.07.338-.07.51v2.84h-1.296v-5.163h1.231v.828h.022c.057-.129.135-.25.232-.366a1.81 1.81 0 0 1 .346-.312 1.65 1.65 0 0 1 .46-.22 1.92 1.92 0 0 1 .572-.08c.403 0 .738.089 1.004.268.267.18.472.416.616.71.173-.315.404-.557.692-.726a1.975 1.975 0 0 1 1.015-.253zm6.327 2.215c0-.165-.024-.322-.07-.473a1.082 1.082 0 0 0-.222-.398 1.081 1.081 0 0 0-.384-.274 1.346 1.346 0 0 0-.545-.103 1.46 1.46 0 0 0-.989.35 1.27 1.27 0 0 0-.448.898h2.658zm1.296.581v.173c0 .057-.004.114-.01.172h-3.944a1.275 1.275 0 0 0 .475.909c.137.11.292.199.465.263.173.065.353.097.54.097.324 0 .598-.059.821-.177.223-.119.407-.282.551-.49l.864.689c-.511.688-1.253 1.033-2.225 1.033-.404 0-.775-.063-1.113-.189a2.628 2.628 0 0 1-.88-.532 2.4 2.4 0 0 1-.584-.845 2.9 2.9 0 0 1-.21-1.135c0-.416.07-.794.21-1.135.14-.34.333-.631.578-.871.245-.24.535-.427.87-.56a2.921 2.921 0 0 1 1.086-.199c.36 0 .693.06.999.178.306.118.57.294.794.527.223.233.398.523.524.871s.19.755.19 1.221zm-.243-1.613v-1.033h.908v-1.496h1.275v1.496h1.296v1.033h-1.296v2.399c0 .23.041.42.124.57.083.15.268.226.557.226.086 0 .18-.01.28-.027.101-.018.191-.045.27-.08l.044 1.01a2.139 2.139 0 0 1-.41.103c-.16.025-.31.037-.455.037-.345 0-.626-.048-.842-.145a1.277 1.277 0 0 1-.514-.398 1.47 1.47 0 0 1-.259-.58 3.364 3.364 0 0 1-.07-.705v-2.41h-.908zm6.554-1.184c.338 0 .628.06.87.178.24.118.439.274.594.468.154.193.268.416.34.667.072.25.108.509.108.774v3.228h-1.297v-2.84c0-.151-.01-.307-.032-.468a1.344 1.344 0 0 0-.135-.441.882.882 0 0 0-.292-.329c-.126-.086-.293-.129-.502-.129-.21 0-.39.04-.54.119a1.117 1.117 0 0 0-.379.317c-.1.133-.176.282-.226.446a1.72 1.72 0 0 0-.076.506v2.819h-1.297v-8.134h1.297v3.69h.022a1.24 1.24 0 0 1 .221-.317 1.745 1.745 0 0 1 .783-.479c.166-.05.346-.075.54-.075zm2.696.15h1.296v5.165h-1.296v-5.164zm-.184-1.753a.74.74 0 0 1 .232-.543.8.8 0 0 1 .589-.232.86.86 0 0 1 .6.221.716.716 0 0 1 .243.554.716.716 0 0 1-.243.554.86.86 0 0 1-.6.22.8.8 0 0 1-.589-.23.742.742 0 0 1-.232-.544zm2.307 1.754h1.232v.828h.021c.116-.258.315-.486.6-.683a1.729 1.729 0 0 1 1.01-.296c.339 0 .629.06.87.178s.44.274.594.468c.155.193.268.416.34.667.072.25.108.509.108.774v3.228h-1.296v-2.862c0-.15-.01-.308-.032-.473a1.274 1.274 0 0 0-.14-.447.929.929 0 0 0-.298-.328c-.126-.086-.294-.129-.502-.129a1.1 1.1 0 0 0-.54.124 1.146 1.146 0 0 0-.373.317c-.098.13-.171.278-.222.447a1.78 1.78 0 0 0-.075.51v2.84h-1.297v-5.163zm10.81 0v4.701c0 .466-.058.888-.173 1.264a2.445 2.445 0 0 1-.535.958 2.412 2.412 0 0 1-.913.608c-.367.143-.803.215-1.307.215a4.603 4.603 0 0 1-1.356-.215 4.17 4.17 0 0 1-.653-.27 3.153 3.153 0 0 1-.562-.365l.745-1a2.678 2.678 0 0 0 1.815.731c.31 0 .571-.045.784-.134.212-.09.381-.214.507-.372.126-.157.216-.344.27-.559.054-.215.081-.452.081-.71v-.377h-.021a1.821 1.821 0 0 1-.719.576 2.335 2.335 0 0 1-.977.199c-.39 0-.742-.072-1.06-.215a2.4 2.4 0 0 1-.804-.581 2.659 2.659 0 0 1-.513-.855 2.93 2.93 0 0 1-.184-1.039c0-.373.06-.724.178-1.054.12-.33.288-.617.508-.86.22-.245.486-.438.8-.582a2.502 2.502 0 0 1 1.053-.215c.367 0 .71.075 1.026.226.317.15.57.384.757.7h.021v-.775h1.232zm-2.766.903c-.238 0-.448.044-.632.13a1.367 1.367 0 0 0-.464.35 1.57 1.57 0 0 0-.292.521 1.97 1.97 0 0 0-.103.646 1.795 1.795 0 0 0 .395 1.124c.126.154.28.278.464.371.184.093.39.14.621.14a1.481 1.481 0 0 0 1.129-.495c.134-.15.236-.325.308-.522a1.866 1.866 0 0 0 0-1.253 1.603 1.603 0 0 0-.308-.527 1.433 1.433 0 0 0-1.118-.485z"/><path fill="#000" d="M146.235 45.1h3.412c.96 0 1.768-.321 2.425-.965.658-.644.987-1.436.987-2.375V13.363h-8.53a3.36 3.36 0 0 1-2.399-.966c-.675-.643-1.013-1.435-1.013-2.375V0h-17.059c-.924 0-1.724.33-2.399.992-.675.661-1.013 1.444-1.013 2.349V41.76c0 .905.329 1.687.986 2.349.658.66 1.466.991 2.426.991h13.647v-3.445a5.716 5.716 0 0 1-1.252-1.827 5.576 5.576 0 0 1-.454-2.244c0-1.601.587-2.976 1.76-4.124 1.172-1.148 2.576-1.723 4.211-1.723 1.635 0 3.039.575 4.212 1.723 1.172 1.148 1.759 2.523 1.759 4.124 0 .8-.151 1.548-.453 2.244a5.716 5.716 0 0 1-1.253 1.827V45.1zm-6.824-2.244v8.247l2.56-2.505 2.558 2.505v-8.247c-.391.174-.8.313-1.226.418-.427.104-.87.156-1.333.156-.462 0-.906-.052-1.333-.156a7.245 7.245 0 0 1-1.226-.418zM142.823 0v10.022c0 .453.169.844.507 1.175.337.33.737.496 1.199.496h8.53L142.823 0zm-5.118 11.693v1.67h-11.941v-1.67h11.941zm0-5.011v1.67h-11.941v-1.67h11.941zm10.236 10.022v1.67h-22.177v-1.67h22.177zm0 5.011v1.67h-22.177v-1.67h22.177zm0 5.011v1.67h-22.177v-1.67h22.177zm-5.97 15.034c1.172 0 2.176-.41 3.011-1.227.835-.818 1.253-1.8 1.253-2.95 0-1.148-.418-2.13-1.253-2.949-.835-.817-1.84-1.226-3.012-1.226-1.173 0-2.177.409-3.012 1.226-.835.818-1.253 1.801-1.253 2.95 0 1.148.418 2.131 1.253 2.949.835.818 1.84 1.227 3.012 1.227z"/></g></svg>