<svg xmlns="http://www.w3.org/2000/svg" width="218" height="36" viewBox="0 0 218 36"><g fill="#FD5901" fill-rule="evenodd"><path fill-rule="nonzero" d="M1.79 23.986V2.193C1.79.982 2.767 0 3.973 0H25.66c1.206 0 2.183.982 2.183 2.193v21.793a.73.73 0 0 1-.727.731H2.517a.73.73 0 0 1-.727-.73zm17.513 7.466c0 2.512-2.028 4.548-4.528 4.548-2.501 0-4.529-2.036-4.529-4.548s2.028-4.548 4.529-4.548c2.5 0 4.528 2.036 4.528 4.548zm-2.264 0a2.269 2.269 0 0 0-2.264-2.274 2.27 2.27 0 0 0-2.265 2.274 2.27 2.27 0 0 0 2.265 2.274 2.27 2.27 0 0 0 2.264-2.274zm-6.164-4.548H.728a.73.73 0 0 0-.728.731v2.218c0 .403.326.73.728.73H8.86a6.006 6.006 0 0 1 2.014-3.679zm32.12 4.548c0 2.512-2.028 4.548-4.528 4.548-2.501 0-4.529-2.036-4.529-4.548s2.028-4.548 4.529-4.548c2.5 0 4.528 2.036 4.528 4.548zm-2.264 0a2.27 2.27 0 0 0-2.264-2.274 2.269 2.269 0 0 0-2.264 2.274 2.27 2.27 0 0 0 2.264 2.274 2.27 2.27 0 0 0 2.264-2.274zM51 27.635v2.218a.73.73 0 0 1-.728.73H44.38c-.421-2.902-2.909-5.14-5.913-5.14-3.005 0-5.493 2.238-5.914 5.14H20.688a6.007 6.007 0 0 0-2.013-3.679h11.25V5.997c0-.807.65-1.462 1.455-1.462h6.87c1.935 0 3.743.966 4.825 2.576l4.43 6.589c.649.966.996 2.105.996 3.272v9.932h1.771a.73.73 0 0 1 .728.731zm-7.383-13.767l-3.541-5.054a.727.727 0 0 0-.596-.31h-5.524a.73.73 0 0 0-.728.73v5.055c0 .404.326.73.728.73h9.066a.73.73 0 0 0 .595-1.15z"/><path d="M61.027 7.796h5.941v1.482h-4.303v2.418h4.056v1.482h-4.056V17h-1.638V7.796zm7.826 0h3.198c.442 0 .869.041 1.28.123.412.083.778.224 1.099.423.32.2.576.468.767.806.19.338.286.767.286 1.287 0 .667-.184 1.226-.553 1.677-.368.45-.894.724-1.579.819L75.795 17h-1.976l-2.132-3.9h-1.196V17h-1.638V7.796zm2.912 3.9c.234 0 .468-.01.702-.032.234-.022.448-.074.644-.156a1.1 1.1 0 0 0 .474-.377c.121-.17.182-.406.182-.709 0-.269-.056-.485-.169-.65a1.05 1.05 0 0 0-.442-.37 2.035 2.035 0 0 0-.605-.163 5.508 5.508 0 0 0-.643-.039h-1.417v2.496h1.274zm5.642-3.9h6.097v1.482h-4.459v2.262h4.225v1.482h-4.225v2.496h4.693V17h-6.331V7.796zm8.307 0h6.097v1.482h-4.459v2.262h4.225v1.482h-4.225v2.496h4.693V17h-6.331V7.796zm17.03 1.976a1.511 1.511 0 0 0-.695-.553 2.429 2.429 0 0 0-1.47-.11 1.5 1.5 0 0 0-.48.208 1.087 1.087 0 0 0-.345.37 1.07 1.07 0 0 0-.13.54c0 .312.108.55.325.715.217.165.485.308.806.429.32.121.672.238 1.053.351.381.113.732.269 1.053.468.32.2.59.464.806.793.217.33.325.767.325 1.313 0 .494-.091.925-.273 1.293a2.636 2.636 0 0 1-.734.917 3.176 3.176 0 0 1-1.073.546 4.485 4.485 0 0 1-1.287.182 4.83 4.83 0 0 1-1.651-.286 3.18 3.18 0 0 1-1.365-.962l1.235-1.196c.2.303.461.54.787.709a2.209 2.209 0 0 0 1.605.175c.19-.052.364-.13.52-.234a1.22 1.22 0 0 0 .377-.396 1.06 1.06 0 0 0 .143-.553c0-.338-.108-.598-.325-.78a2.871 2.871 0 0 0-.806-.462c-.32-.125-.672-.244-1.053-.357a4.434 4.434 0 0 1-1.053-.461 2.56 2.56 0 0 1-.806-.78c-.217-.326-.325-.761-.325-1.307 0-.477.097-.888.293-1.235.195-.347.45-.635.767-.864.316-.23.678-.401 1.085-.514a4.66 4.66 0 0 1 2.659.052c.455.147.864.39 1.228.728l-1.196 1.261zm3.315-1.976h1.638v3.666H112V7.796h1.638V17H112v-4.056h-4.303V17h-1.638V7.796zm9.958 0h1.638V17h-1.638V7.796zm4.017 0h3.094a6.2 6.2 0 0 1 1.28.13c.412.087.774.232 1.086.435.312.204.561.477.748.82.186.342.279.769.279 1.28 0 .58-.1 1.049-.299 1.404-.2.355-.468.63-.806.825a3.34 3.34 0 0 1-1.176.397 9.03 9.03 0 0 1-1.398.104h-1.17V17h-1.638V7.796zm2.626 3.991c.234 0 .477-.009.728-.026s.483-.07.695-.156c.213-.087.386-.217.52-.39.135-.173.202-.416.202-.728 0-.286-.06-.513-.182-.682a1.206 1.206 0 0 0-.468-.39 1.974 1.974 0 0 0-.637-.176 6.125 6.125 0 0 0-.676-.039h-1.17v2.587h.988zm5.681-3.991h3.094a6.2 6.2 0 0 1 1.28.13c.412.087.774.232 1.086.435.312.204.561.477.748.82.186.342.279.769.279 1.28 0 .58-.1 1.049-.299 1.404-.2.355-.468.63-.806.825-.338.196-.73.328-1.177.397-.446.07-.912.104-1.397.104h-1.17V17h-1.638V7.796zm2.626 3.991c.234 0 .477-.009.728-.026s.483-.07.696-.156c.212-.087.385-.217.52-.39.134-.173.201-.416.201-.728 0-.286-.06-.513-.182-.682a1.206 1.206 0 0 0-.468-.39 1.974 1.974 0 0 0-.637-.176 6.125 6.125 0 0 0-.676-.039h-1.17v2.587h.988zm5.642-3.991h1.638V17h-1.638V7.796zm4.017 0h2.171l4.459 6.838h.026V7.796h1.638V17h-2.08l-4.55-7.059h-.026V17h-1.638V7.796zm18.889 8.528c-1.135.607-2.405.91-3.809.91a5.38 5.38 0 0 1-1.956-.345 4.464 4.464 0 0 1-1.535-.974 4.48 4.48 0 0 1-1.007-1.515 5.11 5.11 0 0 1-.364-1.963c0-.737.121-1.406.364-2.008a4.507 4.507 0 0 1 1.007-1.541c.43-.425.94-.752 1.535-.981a5.38 5.38 0 0 1 1.956-.345c.702 0 1.36.084 1.976.253.615.17 1.166.47 1.651.904l-1.209 1.222a3.031 3.031 0 0 0-1.072-.663 3.798 3.798 0 0 0-1.333-.234 3.19 3.19 0 0 0-1.293.253 2.96 2.96 0 0 0-.995.702 3.188 3.188 0 0 0-.644 1.047 3.59 3.59 0 0 0-.227 1.287c0 .494.076.949.227 1.365.152.416.367.776.644 1.079.277.303.609.542.994.715.386.173.817.26 1.294.26a5.68 5.68 0 0 0 1.177-.117c.368-.078.695-.2.981-.364V13.1h-1.885v-1.482h3.523v4.706zM60.533 26.437c0-.737.121-1.406.364-2.009a4.507 4.507 0 0 1 1.008-1.54 4.42 4.42 0 0 1 1.533-.982 5.38 5.38 0 0 1 1.957-.344 5.468 5.468 0 0 1 1.976.319 4.319 4.319 0 0 1 1.547.968c.433.425.771.936 1.014 1.534s.364 1.265.364 2.002a5.11 5.11 0 0 1-.364 1.963 4.502 4.502 0 0 1-1.014 1.521 4.632 4.632 0 0 1-1.547.994 5.473 5.473 0 0 1-1.976.371 5.38 5.38 0 0 1-1.956-.345 4.464 4.464 0 0 1-1.535-.974 4.48 4.48 0 0 1-1.007-1.515 5.11 5.11 0 0 1-.364-1.963zm1.716-.104c0 .494.076.949.227 1.365.152.416.367.776.644 1.079.277.303.609.542.995.715.385.173.816.26 1.293.26s.91-.087 1.3-.26c.39-.173.724-.412 1.001-.715.277-.303.492-.663.644-1.079.151-.416.227-.871.227-1.365 0-.46-.076-.888-.227-1.287A3.188 3.188 0 0 0 67.709 24a2.943 2.943 0 0 0-1.001-.703 3.236 3.236 0 0 0-1.3-.253 3.19 3.19 0 0 0-1.293.253 2.96 2.96 0 0 0-.995.703 3.188 3.188 0 0 0-.643 1.046 3.59 3.59 0 0 0-.228 1.287zm9.971-4.537h2.171l4.459 6.838h.026v-6.838h1.638V31h-2.08l-4.55-7.059h-.026V31H72.22v-9.204zm14.43 4.641c0-.737.121-1.406.364-2.009a4.507 4.507 0 0 1 1.008-1.54c.429-.425.94-.752 1.534-.982a5.38 5.38 0 0 1 1.956-.344 5.468 5.468 0 0 1 1.976.319 4.319 4.319 0 0 1 1.547.968c.433.425.771.936 1.014 1.534s.364 1.265.364 2.002a5.11 5.11 0 0 1-.364 1.963 4.502 4.502 0 0 1-1.014 1.521 4.632 4.632 0 0 1-1.547.994 5.473 5.473 0 0 1-1.976.371 5.38 5.38 0 0 1-1.956-.345 4.464 4.464 0 0 1-1.534-.974 4.48 4.48 0 0 1-1.008-1.515 5.11 5.11 0 0 1-.364-1.963zm1.716-.104c0 .494.076.949.228 1.365.151.416.366.776.643 1.079.277.303.609.542.995.715.385.173.816.26 1.293.26s.91-.087 1.3-.26c.39-.173.724-.412 1.001-.715.277-.303.492-.663.644-1.079.151-.416.227-.871.227-1.365 0-.46-.076-.888-.227-1.287A3.188 3.188 0 0 0 93.826 24a2.943 2.943 0 0 0-1.001-.703 3.236 3.236 0 0 0-1.3-.253 3.19 3.19 0 0 0-1.293.253 2.96 2.96 0 0 0-.995.703 3.188 3.188 0 0 0-.643 1.046 3.59 3.59 0 0 0-.228 1.287zm9.971-4.537h3.198c.442 0 .869.041 1.28.123.412.083.778.224 1.099.423.32.2.576.468.767.806.19.338.286.767.286 1.287 0 .667-.184 1.226-.552 1.677-.369.45-.895.724-1.58.819L105.279 31h-1.976l-2.132-3.9h-1.196V31h-1.638v-9.204zm2.912 3.9c.234 0 .468-.01.702-.033.234-.021.448-.073.644-.155a1.1 1.1 0 0 0 .474-.377c.121-.17.182-.406.182-.709 0-.269-.056-.485-.169-.65a1.05 1.05 0 0 0-.442-.37 2.035 2.035 0 0 0-.605-.163 5.508 5.508 0 0 0-.643-.039h-1.417v2.496h1.274zm5.642-3.9h3.627a5.53 5.53 0 0 1 1.755.28c.563.186 1.062.47 1.495.851.433.381.78.86 1.04 1.436.26.577.39 1.255.39 2.035 0 .789-.15 1.471-.448 2.047a4.383 4.383 0 0 1-1.157 1.43 4.934 4.934 0 0 1-1.574.846 5.495 5.495 0 0 1-1.696.279h-3.432v-9.204zm2.86 7.722c.511 0 .994-.058 1.45-.175a3.448 3.448 0 0 0 1.189-.546 2.61 2.61 0 0 0 .8-.963c.195-.394.292-.873.292-1.436 0-.555-.087-1.031-.26-1.43a2.487 2.487 0 0 0-.721-.968 3.01 3.01 0 0 0-1.093-.547 5.152 5.152 0 0 0-1.384-.175h-1.495v6.24h1.222zm7.371-7.722h6.097v1.482h-4.459v2.262h4.225v1.482h-4.225v2.496h4.693V31h-6.331v-9.204zm8.307 0h3.198c.442 0 .869.041 1.28.123.412.083.778.224 1.099.423.32.2.576.468.767.806.19.338.286.767.286 1.287 0 .667-.184 1.226-.553 1.677-.368.45-.894.724-1.579.819L132.371 31h-1.976l-2.132-3.9h-1.196V31h-1.638v-9.204zm2.912 3.9c.234 0 .468-.01.702-.033.234-.021.448-.073.643-.155.196-.083.354-.208.475-.377.121-.17.182-.406.182-.709 0-.269-.056-.485-.169-.65a1.05 1.05 0 0 0-.442-.37 2.035 2.035 0 0 0-.605-.163 5.508 5.508 0 0 0-.643-.039h-1.417v2.496h1.274zm10.153-1.924a1.511 1.511 0 0 0-.696-.552 2.429 2.429 0 0 0-1.469-.111 1.5 1.5 0 0 0-.48.208 1.087 1.087 0 0 0-.345.37 1.07 1.07 0 0 0-.13.54c0 .312.108.55.325.715.217.165.485.308.806.429.32.121.672.238 1.053.351.381.113.732.269 1.053.468.32.2.59.464.806.793.217.33.325.767.325 1.313 0 .494-.091.925-.273 1.294a2.636 2.636 0 0 1-.734.916 3.176 3.176 0 0 1-1.073.546 4.485 4.485 0 0 1-1.287.182 4.83 4.83 0 0 1-1.651-.286 3.18 3.18 0 0 1-1.365-.962l1.235-1.196c.2.303.461.54.787.709a2.209 2.209 0 0 0 1.605.175c.19-.052.364-.13.52-.234a1.22 1.22 0 0 0 .377-.396 1.06 1.06 0 0 0 .143-.553c0-.338-.108-.598-.325-.78a2.871 2.871 0 0 0-.806-.461c-.32-.126-.672-.245-1.053-.358a4.434 4.434 0 0 1-1.053-.462 2.56 2.56 0 0 1-.806-.78c-.217-.325-.325-.76-.325-1.306 0-.477.097-.888.293-1.235a2.67 2.67 0 0 1 .767-.865c.316-.23.678-.4 1.085-.513a4.66 4.66 0 0 1 2.659.052c.455.147.864.39 1.228.728l-1.196 1.261zm7.033 2.665c0-.737.121-1.406.364-2.009a4.507 4.507 0 0 1 1.008-1.54c.429-.425.94-.752 1.534-.982a5.38 5.38 0 0 1 1.956-.344 5.468 5.468 0 0 1 1.976.319 4.319 4.319 0 0 1 1.547.968c.433.425.771.936 1.014 1.534s.364 1.265.364 2.002a5.11 5.11 0 0 1-.364 1.963 4.502 4.502 0 0 1-1.014 1.521 4.632 4.632 0 0 1-1.547.994 5.473 5.473 0 0 1-1.976.371 5.38 5.38 0 0 1-1.957-.345 4.464 4.464 0 0 1-1.533-.974 4.48 4.48 0 0 1-1.008-1.515 5.11 5.11 0 0 1-.364-1.963zm1.716-.104c0 .494.076.949.227 1.365.152.416.367.776.644 1.079.277.303.609.542.994.715.386.173.817.26 1.294.26.477 0 .91-.087 1.3-.26.39-.173.724-.412 1.001-.715.277-.303.492-.663.643-1.079a3.95 3.95 0 0 0 .228-1.365c0-.46-.076-.888-.228-1.287a3.188 3.188 0 0 0-.643-1.046 2.943 2.943 0 0 0-1.001-.703 3.236 3.236 0 0 0-1.3-.253 3.19 3.19 0 0 0-1.293.253 2.96 2.96 0 0 0-.995.703 3.188 3.188 0 0 0-.644 1.046 3.59 3.59 0 0 0-.227 1.287zm8.905-4.537h1.885l2.509 6.955 2.587-6.955h1.768L161.179 31h-1.417l-3.614-9.204zm10.101 0h6.097v1.482h-4.459v2.262h4.225v1.482h-4.225v2.496h4.693V31h-6.331v-9.204zm8.307 0h3.198c.442 0 .869.041 1.28.123.412.083.778.224 1.099.423.32.2.576.468.767.806.19.338.286.767.286 1.287 0 .667-.184 1.226-.553 1.677-.368.45-.894.724-1.579.819L181.498 31h-1.976l-2.132-3.9h-1.196V31h-1.638v-9.204zm2.912 3.9c.234 0 .468-.01.702-.033.234-.021.448-.073.644-.155a1.1 1.1 0 0 0 .474-.377c.121-.17.182-.406.182-.709 0-.269-.056-.485-.169-.65a1.05 1.05 0 0 0-.442-.37 2.035 2.035 0 0 0-.605-.163 5.508 5.508 0 0 0-.643-.039h-1.417v2.496h1.274zm12.961-4.056h.117c.442 0 .895.076 1.359.227.463.152.86.375 1.189.67l-1.079 1.209a2.185 2.185 0 0 0-1.586-.702v2.6l.052.013c.364.095.721.204 1.073.325.35.121.662.28.935.474.274.196.494.44.663.735.17.295.254.663.254 1.105 0 .433-.078.817-.234 1.15a2.6 2.6 0 0 1-.637.858 3.068 3.068 0 0 1-.942.566c-.36.139-.748.23-1.164.273v.936h-.702v-.923a4.756 4.756 0 0 1-1.644-.26 3.476 3.476 0 0 1-1.385-.897l1.183-1.209c.208.295.477.52.806.676.33.156.676.251 1.04.286v-2.743l-.065-.013c-.364-.104-.71-.219-1.04-.345a3.265 3.265 0 0 1-.878-.494 2.223 2.223 0 0 1-.604-.74c-.147-.29-.221-.653-.221-1.086 0-.39.078-.741.234-1.053.156-.312.364-.583.624-.813.26-.23.559-.413.897-.552a3.678 3.678 0 0 1 1.053-.26v-.871h.702v.858zm-.702 1.43c-.303.052-.574.18-.813.383-.238.204-.357.47-.357.8 0 .2.032.36.098.481.065.121.149.225.253.312.104.087.228.158.37.215.144.056.293.119.449.188V23.07zm.702 6.682a2.22 2.22 0 0 0 .513-.162c.16-.074.302-.165.423-.273.121-.109.219-.239.292-.39a1.16 1.16 0 0 0 .111-.514.882.882 0 0 0-.124-.481 1.084 1.084 0 0 0-.318-.325 2.223 2.223 0 0 0-.429-.221 10.97 10.97 0 0 0-.468-.169v2.535zm7.41-6.162l-1.729 1.599-.91-1.079 2.782-2.314h1.417V31h-1.56v-7.41zm5.096 2.808c0-.728.059-1.35.175-1.866.118-.515.271-.948.462-1.3.19-.35.405-.632.643-.845a2.784 2.784 0 0 1 1.444-.695c.23-.035.43-.052.604-.052.173 0 .375.017.605.052a2.784 2.784 0 0 1 1.443.695c.238.213.452.494.643.846.19.35.344.784.462 1.3.117.515.175 1.137.175 1.865s-.058 1.35-.175 1.866c-.118.515-.271.948-.462 1.3-.19.35-.405.632-.644.845a2.784 2.784 0 0 1-1.442.695c-.23.035-.432.052-.605.052s-.375-.017-.605-.052a2.784 2.784 0 0 1-1.443-.695 3.097 3.097 0 0 1-.643-.845 5.18 5.18 0 0 1-.462-1.3c-.117-.516-.175-1.138-.175-1.866zm1.56 0c0 .286.02.617.059.994.039.378.119.735.24 1.073.121.338.299.624.533.858.234.234.546.351.936.351s.702-.117.936-.351c.234-.234.412-.52.533-.858.121-.338.202-.695.24-1.073.04-.377.059-.708.059-.994 0-.286-.02-.617-.059-.994a4.547 4.547 0 0 0-.24-1.073 2.286 2.286 0 0 0-.533-.858c-.234-.234-.546-.351-.936-.351s-.702.117-.936.351c-.234.234-.412.52-.533.858a4.547 4.547 0 0 0-.24 1.073 9.807 9.807 0 0 0-.059.994zm6.5 0c0-.728.059-1.35.175-1.866.118-.515.271-.948.462-1.3.19-.35.405-.632.643-.845a2.784 2.784 0 0 1 1.444-.695c.23-.035.43-.052.604-.052.173 0 .375.017.605.052a2.784 2.784 0 0 1 1.443.695c.238.213.452.494.643.846.19.35.344.784.462 1.3.117.515.175 1.137.175 1.865s-.058 1.35-.175 1.866c-.118.515-.271.948-.462 1.3-.19.35-.405.632-.644.845a2.784 2.784 0 0 1-1.442.695c-.23.035-.432.052-.605.052s-.375-.017-.605-.052a2.784 2.784 0 0 1-1.443-.695 3.097 3.097 0 0 1-.643-.845 5.18 5.18 0 0 1-.462-1.3c-.116-.516-.175-1.138-.175-1.866zm1.56 0c0 .286.02.617.058.994.04.378.12.735.241 1.073.121.338.299.624.533.858.234.234.546.351.936.351s.702-.117.936-.351c.234-.234.412-.52.533-.858.121-.338.202-.695.24-1.073.04-.377.059-.708.059-.994 0-.286-.02-.617-.059-.994a4.547 4.547 0 0 0-.24-1.073 2.286 2.286 0 0 0-.533-.858c-.234-.234-.546-.351-.936-.351s-.702.117-.936.351c-.234.234-.412.52-.533.858a4.547 4.547 0 0 0-.24 1.073 9.807 9.807 0 0 0-.059.994z"/></g></svg>