<svg xmlns="http://www.w3.org/2000/svg" width="62" height="62" viewBox="0 0 62 62"><path fill="#9B9B9B" fill-rule="evenodd" d="M19.35 5.92C22.3 1.973 25.85 0 30 0s7.687 1.96 10.612 5.88C43.538 9.8 45 14.507 45 20c0 5.493-1.462 10.2-4.388 14.12C37.687 38.04 34.15 40 30 40s-7.687-1.96-10.612-5.88C16.462 30.2 15 25.493 15 20c0-5.493 1.45-10.187 4.35-14.08zM14.803 40C19.4 44.889 24.8 47.333 31 47.333c6.2 0 11.6-2.444 16.197-7.333 4.134.196 7.634 1.699 10.502 4.51C60.566 47.321 62 50.707 62 54.667V62H0v-7.333c0-3.96 1.434-7.346 4.301-10.157C7.17 41.699 10.67 40.196 14.803 40z" opacity=".309"/></svg>