<svg width="45" height="60" viewBox="0 0 45 60" xmlns="http://www.w3.org/2000/svg"><title>Page 1</title><path d="M44.688 16.406c.208.625.312 1.146.312 1.563V56.25c0 1.042-.339 1.927-1.016 2.656-.677.73-1.484 1.094-2.422 1.094H3.594c-.938 0-1.771-.365-2.5-1.094C.364 58.177 0 57.292 0 56.25V3.75c0-1.042.365-1.927 1.094-2.656C1.823.364 2.656 0 3.594 0h25c.625 0 1.093.104 1.406.313a4.17 4.17 0 0 1 1.094.78L44.219 15.47l.468.937zM7.5 17.97v1.562c0 .313.156.469.469.469h11.093c.313 0 .47-.156.47-.469V17.97c0-.313-.157-.469-.47-.469H7.97c-.313 0-.469.156-.469.469zm0 20v1.562c0 .313.156.469.469.469h19.218c.209 0 .313-.156.313-.469V37.97c0-.313-.104-.469-.313-.469H7.97c-.313 0-.469.156-.469.469zm25 11.562V47.97c0-.313-.104-.469-.313-.469H7.97c-.313 0-.469.156-.469.469v1.562c0 .313.156.469.469.469h24.218c.209 0 .313-.156.313-.469zm5-20V27.97c0-.313-.104-.469-.313-.469H7.97c-.313 0-.469.156-.469.469v1.562c0 .313.156.469.469.469h29.218c.209 0 .313-.156.313-.469zm-7.344-11.718h9.375L28.438 5.624v10.313c0 1.25.572 1.874 1.718 1.874z" fill="#9B9B9B" fill-rule="evenodd" opacity=".308"/></svg>