<svg xmlns="http://www.w3.org/2000/svg" width="29" height="39" viewBox="0 0 29 39"><path fill="#9B9B9B" fill-rule="evenodd" d="M14.531 28.876v2.693c-.014 4.128-.056 6.284-.127 6.467-.169.453-.528.735-1.077.849-.76.127-2.039-.142-3.835-.806-1.796-.665-2.94-1.294-3.433-1.888a1.6 1.6 0 0 1-.36-.763 1.32 1.32 0 0 1 .085-.551c.056-.142.296-.474.718-.997.423-.523 1.698-2.05 3.825-4.58.014 0 .436-.495 1.267-1.485.212-.268.49-.441.835-.52a1.834 1.834 0 0 1 1.046.075c.338.141.602.346.792.615.19.269.278.565.264.89zm-3.148-5.323c-.042.778-.408 1.272-1.099 1.484l-2.535.827c-3.873 1.244-5.93 1.866-6.17 1.866-.492-.028-.873-.282-1.14-.763-.17-.353-.289-.883-.36-1.59-.112-1.075-.105-2.252.022-3.531.126-1.28.338-2.16.634-2.64.295-.48.69-.707 1.183-.679.183 0 1.605.545 4.268 1.633l2.43.997 1.774.72c.324.128.574.344.75.648.176.304.257.646.243 1.028zm17.452 6.298c-.099.763-.743 1.901-1.933 3.414-1.19 1.513-2.145 2.41-2.863 2.693-.521.198-.965.149-1.331-.148-.198-.142-1.493-2.17-3.888-6.086l-.993-1.633a1.453 1.453 0 0 1-.243-.975 1.82 1.82 0 0 1 .412-.976c.493-.608 1.078-.792 1.754-.551.014.014.852.297 2.514.848a463.22 463.22 0 0 1 5.113 1.686c.55.19.88.336.993.434.394.312.55.743.465 1.294zM14.637 16.449c.07 1.442-.31 2.305-1.141 2.587-.817.24-1.62-.261-2.409-1.505L3.101 4.85c-.113-.495.021-.933.401-1.315.578-.608 2.04-1.24 4.384-1.898C10.232.98 11.813.757 12.63.97c.563.142.908.46 1.035.955.042.254.197 2.413.465 6.478.267 4.064.436 6.747.507 8.047zm13.987 2.29c.042.552-.141.969-.55 1.252-.211.14-2.528.749-6.95 1.823-.945.212-1.586.375-1.924.488l.022-.042a1.45 1.45 0 0 1-.972-.085 1.73 1.73 0 0 1-.782-.679c-.423-.664-.423-1.28 0-1.845.014-.014.542-.735 1.585-2.163 1.76-2.417 2.817-3.86 3.169-4.326.352-.466.591-.742.718-.827.394-.268.852-.282 1.373-.042.676.325 1.543 1.269 2.6 2.83 1.056 1.563 1.626 2.747 1.71 3.553v.063z"/></svg>