<svg xmlns="http://www.w3.org/2000/svg" width="33" height="34" viewBox="0 0 33 34"><path fill="#9B9B9B" fill-rule="evenodd" d="M26.712.85c1.676 0 3.11.597 4.3 1.792 1.19 1.194 1.785 2.633 1.785 4.315v20.357c0 1.683-.595 3.121-1.785 4.316-1.19 1.194-2.624 1.791-4.3 1.791H22.74V20.804h4.205l.634-4.92H22.74v-3.138c0-.791.166-1.385.497-1.781.33-.396.975-.594 1.933-.594l2.578-.021V5.96c-.888-.127-2.141-.19-3.761-.19-1.916 0-3.448.565-4.596 1.696-1.148 1.131-1.722 2.728-1.722 4.792v3.627h-4.225v4.92h4.225V33.42H6.43c-1.676 0-3.109-.597-4.3-1.791C.94 30.435.346 28.997.346 27.314V6.957c0-1.682.595-3.12 1.785-4.315C3.32 1.447 4.753.85 6.43.85h20.282z"/></svg>