<svg xmlns="http://www.w3.org/2000/svg" width="81" height="52" viewBox="0 0 81 52"><path fill="#9B9B9B" fill-rule="evenodd" d="M61.62 14.544c-.58 0-1.134.026-1.661.079-.527.052-1.081.13-1.661.234a18.916 18.916 0 0 0-2.927-5.982 21.59 21.59 0 0 0-4.706-4.692 21.824 21.824 0 0 0-6.012-3.088C42.464.365 40.157 0 37.73 0c-3.005 0-5.814.547-8.424 1.642-2.61 1.095-4.891 2.58-6.842 4.457a20.985 20.985 0 0 0-4.628 6.608c-1.133 2.528-1.7 5.226-1.7 8.093 0 .521.026 1.03.079 1.525.053.495.105 1.003.158 1.525a7.953 7.953 0 0 0-.83-.118 10.21 10.21 0 0 0-.91-.039c-4.06 0-7.515 1.382-10.363 4.145C1.424 30.6 0 33.937 0 37.847s1.424 7.246 4.271 10.009C7.12 50.619 10.573 52 14.634 52h17.798V36.048H22.307L40.5 16.03l18.193 20.018H48.568V52H61.62c2.69 0 5.208-.482 7.554-1.447 2.347-.964 4.39-2.293 6.13-3.988 1.74-1.694 3.125-3.688 4.154-5.982A17.577 17.577 0 0 0 81 33.311c0-2.606-.514-5.043-1.542-7.311a19.382 19.382 0 0 0-4.153-5.943c-1.74-1.694-3.784-3.036-6.13-4.027-2.347-.99-4.865-1.486-7.555-1.486z" opacity=".324"/></svg>