<svg xmlns="http://www.w3.org/2000/svg" width="33" height="34" viewBox="0 0 33 34"><path fill="#9B9B9B" fill-rule="evenodd" d="M20.582 20.974c1.056-1.06 1.585-2.34 1.585-3.838 0-1.499-.529-2.778-1.585-3.838s-2.331-1.59-3.824-1.59c-1.493 0-2.768.53-3.824 1.59-1.057 1.06-1.585 2.34-1.585 3.838 0 1.498.528 2.778 1.585 3.838 1.056 1.06 2.33 1.59 3.824 1.59 1.493 0 2.768-.53 3.824-1.59zm2.07-9.755c1.62 1.626 2.43 3.598 2.43 5.917 0 2.318-.81 4.29-2.43 5.916-1.62 1.626-3.584 2.439-5.894 2.439s-4.275-.813-5.895-2.439c-1.62-1.626-2.43-3.598-2.43-5.916 0-2.319.81-4.29 2.43-5.917 1.62-1.625 3.585-2.438 5.895-2.438 2.31 0 4.275.813 5.895 2.438zm4.142-4.156c.38.382.57.841.57 1.379 0 .537-.19.996-.57 1.378-.38.382-.838.572-1.374.572-.535 0-.993-.19-1.373-.572a1.882 1.882 0 0 1-.57-1.378c0-.538.19-.997.57-1.379.38-.382.838-.572 1.373-.572.536 0 .993.19 1.374.572zm-8.43-3.287h-1.606l-1.616-.01c-.98-.007-1.722-.007-2.23 0a78.69 78.69 0 0 0-2.038.063c-.853.036-1.578.106-2.177.212a8.447 8.447 0 0 0-1.51.393 5.48 5.48 0 0 0-1.86 1.23A5.503 5.503 0 0 0 4.103 7.53c-.155.41-.285.915-.39 1.516-.106.6-.177 1.329-.212 2.184a78.845 78.845 0 0 0-.063 2.046c-.007.51-.007 1.255 0 2.238l.01 1.622-.01 1.622a115.46 115.46 0 0 0 0 2.237c.007.509.028 1.191.063 2.046.035.856.106 1.584.211 2.185.106.6.236 1.106.391 1.516.282.707.69 1.329 1.226 1.866a5.48 5.48 0 0 0 1.859 1.23c.408.155.912.286 1.51.392.6.106 1.324.177 2.177.212.852.035 1.531.057 2.039.064.507.007 1.25.007 2.229 0l1.616-.01 1.616.01a114.2 114.2 0 0 0 2.23 0 77.988 77.988 0 0 0 2.038-.064 16.684 16.684 0 0 0 2.176-.212 8.446 8.446 0 0 0 1.51-.392 5.48 5.48 0 0 0 1.86-1.23 5.503 5.503 0 0 0 1.226-1.866c.154-.41.285-.916.39-1.516.106-.601.176-1.33.212-2.185.035-.855.056-1.537.063-2.046.007-.509.007-1.255 0-2.237l-.01-1.622.01-1.622c.007-.983.007-1.729 0-2.238a78.876 78.876 0 0 0-.063-2.046 16.865 16.865 0 0 0-.212-2.184 8.528 8.528 0 0 0-.39-1.516 5.503 5.503 0 0 0-1.226-1.866 5.48 5.48 0 0 0-1.86-1.23 8.447 8.447 0 0 0-1.51-.393 16.685 16.685 0 0 0-2.176-.212 78.018 78.018 0 0 0-2.039-.063 86.006 86.006 0 0 0-2.24.01zm14.514 6.638c.07 1.244.106 3.484.106 6.722 0 3.237-.035 5.478-.106 6.722-.14 2.94-1.014 5.216-2.62 6.828-1.605 1.612-3.873 2.488-6.803 2.63-1.24.07-3.472.105-6.697.105-3.226 0-5.458-.035-6.698-.106-2.93-.141-5.197-1.017-6.803-2.63-1.606-1.61-2.479-3.887-2.62-6.827-.07-1.244-.106-3.485-.106-6.722 0-3.238.036-5.478.106-6.722.141-2.94 1.014-5.217 2.62-6.829C4.863 1.974 7.13 1.097 10.06.956 11.3.886 13.532.85 16.758.85c3.225 0 5.458.035 6.697.106 2.93.141 5.198 1.018 6.804 2.63 1.605 1.611 2.479 3.887 2.62 6.828z"/></svg>