<svg width="54" height="54" viewBox="0 0 54 54" xmlns="http://www.w3.org/2000/svg"><title>Page 1</title><path d="M26.719 33.797c5.625 0 11.484 1.224 17.578 3.672 6.094 2.448 9.14 5.65 9.14 9.61v6.718H0v-6.719c0-3.958 3.047-7.161 9.14-9.61 6.094-2.447 11.954-3.671 17.579-3.671zm0-6.719c-3.646 0-6.771-1.302-9.375-3.906s-3.907-5.73-3.907-9.375c0-3.646 1.303-6.797 3.907-9.453C19.948 1.687 23.073.359 26.719.359s6.77 1.328 9.375 3.985C38.698 7 40 10.15 40 13.797c0 3.646-1.302 6.77-3.906 9.375-2.604 2.604-5.73 3.906-9.375 3.906z" fill="#9B9B9B" fill-rule="evenodd" opacity=".302"/></svg>