<svg width="117" height="75" viewBox="0 0 117 75" xmlns="http://www.w3.org/2000/svg"><title>Page 1</title><path d="M89.007 20.977c-.838 0-1.638.038-2.4.113a30.66 30.66 0 0 0-2.399.339A27.267 27.267 0 0 0 79.98 12.8a31.162 31.162 0 0 0-6.798-6.767A31.54 31.54 0 0 0 64.5 1.579C61.337.526 58.005 0 54.5 0c-4.342 0-8.398.79-12.168 2.368-3.771 1.58-7.065 3.722-9.884 6.429-2.818 2.707-5.046 5.883-6.684 9.53C24.127 21.974 23.31 25.865 23.31 30c0 .752.038 1.485.114 2.2.076.714.152 1.447.228 2.198-.38-.075-.78-.131-1.2-.169a14.71 14.71 0 0 0-1.313-.056c-5.866 0-10.855 1.992-14.968 5.977C2.057 44.135 0 48.947 0 54.586c0 5.64 2.057 10.452 6.17 14.437C10.283 73.008 15.272 75 21.138 75h25.708V51.992H32.22L58.5 23.12l26.28 28.872H70.153V75h18.853c3.885 0 7.522-.695 10.911-2.086 3.39-1.391 6.342-3.309 8.855-5.752 2.514-2.444 4.514-5.32 5.999-8.628 1.485-3.308 2.228-6.805 2.228-10.489 0-3.76-.743-7.274-2.228-10.545-1.485-3.27-3.485-6.128-5.999-8.571-2.513-2.444-5.465-4.38-8.855-5.809-3.39-1.428-7.026-2.143-10.911-2.143z" fill-rule="evenodd" opacity=".208"/></svg>