<svg xmlns="http://www.w3.org/2000/svg" width="214" height="86" viewBox="0 0 214 86"><g fill="none" fill-rule="evenodd"><path fill="#9B9B9B" d="M7.462 46H3.358V5.644h4.104V46zm28.855-6.954h.057l13.51-33.402h6.27V46h-4.105V10.945h-.114L37.343 46h-2.166L20.585 10.945h-.114V46h-4.104V5.644h6.27l13.68 33.402zM64.774 46H60.27L77.713 5.644h3.99L99.03 46h-4.56l-4.446-10.602H69.163L64.773 46zm5.928-14.364h17.784l-8.892-21.432-8.892 21.432zm62.03-18.753a14.7 14.7 0 0 0-5.017-3.448c-1.938-.818-4.16-1.226-6.669-1.226-2.584 0-4.911.475-6.982 1.425-2.071.95-3.829 2.232-5.273 3.848-1.444 1.615-2.555 3.486-3.334 5.614-.78 2.128-1.169 4.37-1.169 6.726s.39 4.598 1.169 6.726 1.89 3.99 3.334 5.586c1.444 1.596 3.202 2.869 5.273 3.819 2.07.95 4.398 1.425 6.982 1.425 2.28 0 4.37-.247 6.27-.741 1.9-.494 3.44-1.121 4.617-1.881V28.501h-9.405V24.91h13.51v18.183a26.162 26.162 0 0 1-7.126 2.964 32.092 32.092 0 0 1-7.923.969c-3.04 0-5.852-.532-8.436-1.596-2.584-1.064-4.807-2.536-6.669-4.417-1.862-1.882-3.315-4.114-4.36-6.698-1.045-2.584-1.568-5.415-1.568-8.493 0-3.078.532-5.909 1.596-8.493 1.064-2.584 2.537-4.816 4.418-6.698 1.88-1.88 4.104-3.353 6.669-4.417 2.565-1.064 5.348-1.596 8.35-1.596 3.23 0 6.042.475 8.436 1.425 2.394.95 4.446 2.28 6.156 3.99l-2.85 2.85zm16.087 29.469h21.603V46h-25.707V5.644h25.023v3.648h-20.92V23.2h19.552v3.591h-19.551v15.561z"/><path fill="#FD5901" d="M22.609 57.341a10.057 10.057 0 0 0-3.432-2.36c-1.326-.559-2.847-.838-4.563-.838-1.768 0-3.36.325-4.778.975-1.417.65-2.619 1.527-3.607 2.633a11.77 11.77 0 0 0-2.282 3.841 13.28 13.28 0 0 0-.799 4.602c0 1.612.266 3.146.8 4.602.533 1.456 1.293 2.73 2.281 3.822.988 1.092 2.19 1.963 3.607 2.613 1.418.65 3.01.975 4.778.975 1.56 0 2.99-.169 4.29-.507 1.3-.338 2.353-.767 3.159-1.287v-8.385h-6.435V65.57h9.243v12.441a17.9 17.9 0 0 1-4.875 2.028 21.957 21.957 0 0 1-5.421.663c-2.08 0-4.004-.364-5.772-1.092-1.768-.728-3.289-1.735-4.563-3.022-1.274-1.288-2.268-2.815-2.984-4.583C.541 70.237.184 68.3.184 66.194s.364-4.043 1.092-5.811c.728-1.768 1.735-3.295 3.022-4.583 1.288-1.287 2.808-2.294 4.563-3.022 1.756-.728 3.66-1.092 5.714-1.092 2.21 0 4.134.325 5.772.975 1.638.65 3.042 1.56 4.212 2.73l-1.95 1.95zm11.506 20.163h14.781V80H31.307V52.388h17.121v2.496H34.115V64.4h13.377v2.457H34.115v10.647zM53.46 80h-3.081l11.934-27.612h2.73L76.899 80h-3.12l-3.042-7.254H56.463L53.46 80zm4.056-9.828h12.168L63.6 55.508l-6.084 14.664zM83.023 80h-2.808V52.388h8.112c1.352 0 2.606.13 3.764.39 1.157.26 2.157.682 3.003 1.267a5.98 5.98 0 0 1 1.969 2.282c.468.936.702 2.08.702 3.432 0 1.014-.182 1.937-.546 2.769a6.822 6.822 0 0 1-1.482 2.165 7.107 7.107 0 0 1-2.223 1.462 9.676 9.676 0 0 1-2.808.702L98.779 80h-3.432l-7.644-12.909h-4.68V80zm0-15.327h4.875c2.262 0 4.004-.41 5.226-1.229 1.222-.819 1.833-2.047 1.833-3.685 0-.91-.169-1.677-.507-2.301a4.149 4.149 0 0 0-1.404-1.521c-.598-.39-1.326-.676-2.184-.858a13.745 13.745 0 0 0-2.847-.273h-4.992v9.867z"/><path fill="#9B9B9B" d="M124.804 69.548c0 1.56-.182 3.022-.546 4.388-.364 1.365-.962 2.554-1.794 3.568-.832 1.014-1.917 1.813-3.257 2.398-1.339.586-2.983.878-4.933.878-1.95 0-3.594-.292-4.933-.877-1.34-.586-2.425-1.385-3.257-2.399-.832-1.014-1.43-2.203-1.794-3.569-.364-1.365-.546-2.827-.546-4.387v-17.16h.858v17.004c0 1.092.11 2.255.331 3.49a9.15 9.15 0 0 0 1.365 3.432c.69 1.054 1.664 1.931 2.925 2.633 1.262.702 2.945 1.053 5.051 1.053 2.054 0 3.711-.338 4.972-1.014 1.262-.676 2.243-1.54 2.945-2.594a9.223 9.223 0 0 0 1.404-3.431 19.18 19.18 0 0 0 .351-3.569V52.388h.858v17.16zm21.927 3.822c0 1.17-.227 2.216-.682 3.14a7.175 7.175 0 0 1-1.814 2.34c-.754.637-1.644 1.117-2.671 1.443a10.6 10.6 0 0 1-3.218.487c-1.716 0-3.282-.305-4.7-.916-1.416-.612-2.593-1.437-3.529-2.477l.663-.585a9.566 9.566 0 0 0 3.452 2.398c1.313.534 2.671.8 4.075.8 1.014 0 1.976-.15 2.886-.448a7.702 7.702 0 0 0 2.418-1.288 5.984 5.984 0 0 0 1.658-2.066c.403-.82.604-1.762.604-2.828 0-1.066-.22-1.963-.663-2.691a6.533 6.533 0 0 0-1.716-1.872 10.327 10.327 0 0 0-2.398-1.306c-.897-.352-1.8-.67-2.71-.956a35.9 35.9 0 0 1-3.14-1.15c-.95-.404-1.768-.897-2.457-1.483a6.05 6.05 0 0 1-1.6-2.106c-.376-.819-.565-1.813-.565-2.983 0-1.144.228-2.164.683-3.062a6.667 6.667 0 0 1 1.852-2.262 8.515 8.515 0 0 1 2.71-1.404 10.73 10.73 0 0 1 3.257-.487c1.404 0 2.737.266 3.998.8 1.26.533 2.294 1.293 3.1 2.281l-.663.585c-.728-.91-1.657-1.618-2.788-2.126-1.131-.507-2.36-.76-3.686-.76-.936 0-1.852.13-2.75.39a7.723 7.723 0 0 0-2.437 1.19 6.077 6.077 0 0 0-1.755 2.008c-.442.806-.663 1.755-.663 2.847 0 1.066.195 1.97.585 2.71.39.742.91 1.372 1.56 1.892.65.52 1.385.949 2.204 1.287.819.338 1.657.65 2.515.936 1.17.39 2.262.786 3.276 1.19 1.014.403 1.905.89 2.672 1.462a6.126 6.126 0 0 1 1.794 2.086c.429.82.643 1.814.643 2.984zM172.636 80l-3.276-7.917h-16.029L149.938 80h-.936l11.973-27.612h1.092L173.572 80h-.936zm-11.154-27.066l-7.839 18.408h15.444l-7.605-18.408z"/><path fill="#FD5901" d="M178 0h36v86h-36z"/><path fill="#FFF" d="M201.832 74.504c.448 0 .848.16 1.2.48.352.32.528.736.528 1.248s-.176.928-.528 1.248c-.352.32-.752.48-1.2.48-.448 0-.848-.16-1.2-.48-.352-.32-.528-.736-.528-1.248s.176-.928.528-1.248c.352-.32.752-.48 1.2-.48zm-10.016-15.08c-.576.363-1.05.891-1.424 1.584a4.684 4.684 0 0 0-.56 2.256c0 .875.155 1.664.464 2.368.31.704.736 1.307 1.28 1.808a5.625 5.625 0 0 0 1.92 1.152c.736.267 1.53.4 2.384.4.853 0 1.643-.133 2.368-.4a5.796 5.796 0 0 0 1.904-1.136 5.19 5.19 0 0 0 1.28-1.792c.31-.704.464-1.493.464-2.368 0-.96-.181-1.77-.544-2.432a4.977 4.977 0 0 0-1.408-1.632l1.216-1.632a7.135 7.135 0 0 1 1.888 2.352c.47.928.704 2.043.704 3.344 0 1.216-.197 2.315-.592 3.296a7.297 7.297 0 0 1-1.648 2.512 7.464 7.464 0 0 1-2.496 1.616c-.96.384-2.005.576-3.136.576-1.13 0-2.176-.192-3.136-.576a7.464 7.464 0 0 1-2.496-1.616 7.297 7.297 0 0 1-1.648-2.512c-.395-.98-.592-2.08-.592-3.296 0-1.002.219-2.02.656-3.056.437-1.034 1.083-1.872 1.936-2.512l1.216 1.696zm4.064-19.08c1.13 0 2.176.198 3.136.593a7.55 7.55 0 0 1 2.496 1.648 7.468 7.468 0 0 1 1.648 2.528c.395.981.592 2.059.592 3.232 0 1.152-.197 2.219-.592 3.2a7.468 7.468 0 0 1-1.648 2.528 7.544 7.544 0 0 1-2.496 1.648c-.96.395-2.005.592-3.136.592-1.13 0-2.176-.197-3.136-.592a7.544 7.544 0 0 1-2.496-1.648 7.468 7.468 0 0 1-1.648-2.528c-.395-.981-.592-2.048-.592-3.2 0-1.173.197-2.25.592-3.232a7.468 7.468 0 0 1 1.648-2.528 7.544 7.544 0 0 1 2.496-1.648c.96-.395 2.005-.592 3.136-.592zm0 2.305c-.832 0-1.616.133-2.352.4a5.762 5.762 0 0 0-1.92 1.136 5.375 5.375 0 0 0-1.296 1.792c-.32.704-.48 1.493-.48 2.368 0 .875.16 1.659.48 2.352a5.42 5.42 0 0 0 1.296 1.776c.544.49 1.184.87 1.92 1.136.736.267 1.52.4 2.352.4.832 0 1.616-.133 2.352-.4a5.762 5.762 0 0 0 1.92-1.136 5.23 5.23 0 0 0 1.28-1.776c.31-.693.464-1.477.464-2.352 0-.875-.155-1.664-.464-2.368a5.19 5.19 0 0 0-1.28-1.792 5.762 5.762 0 0 0-1.92-1.136 6.851 6.851 0 0 0-2.352-.4zm-4.928-8.104c-.875-.426-1.584-1.082-2.128-1.968-.544-.885-.816-1.872-.816-2.96 0-.405.043-.826.128-1.264a4.01 4.01 0 0 1 .496-1.28c.245-.416.57-.8.976-1.152.405-.352.928-.656 1.568-.912-1.024-.512-1.808-1.21-2.352-2.096-.544-.885-.816-1.936-.816-3.152 0-1.898.565-3.322 1.696-4.272 1.13-.949 2.624-1.424 4.48-1.424h9.184v2.176h-8.288c-1.579 0-2.848.294-3.808.88-.96.587-1.44 1.584-1.44 2.992 0 .79.16 1.456.48 2 .32.544.741.982 1.264 1.312a5.59 5.59 0 0 0 1.776.72 9.27 9.27 0 0 0 2.048.224h7.968v2.176h-8.736c-.725 0-1.387.054-1.984.16-.597.107-1.104.294-1.52.56a2.62 2.62 0 0 0-.96 1.104c-.224.47-.336 1.067-.336 1.792 0 .512.117 1.03.352 1.552.235.523.592.992 1.072 1.408.48.416 1.088.752 1.824 1.008s1.605.384 2.608.384h7.68v2.176h-11.68a48.944 48.944 0 0 0-3.296.128v-2.08a28.972 28.972 0 0 1 2.56-.128v-.064z"/></g></svg>