<svg width="70" height="70" viewBox="0 0 70 70" xmlns="http://www.w3.org/2000/svg"><title>Page 1</title><path d="M10.156 10.313C17.031 3.436 25.312 0 35 0s17.943 3.411 24.766 10.234C66.589 17.057 70 25.312 70 35c0 9.688-3.411 17.943-10.234 24.766C52.943 66.589 44.688 70 35 70c-9.688 0-17.943-3.411-24.766-10.234C3.411 52.943 0 44.688 0 35c0-9.688 3.385-17.917 10.156-24.688zm42.689 12.622c.103-.103.155-.257.155-.463 0-.308-.052-.514-.155-.617l-4.81-3.7c-.104-.104-.31-.155-.621-.155-.207 0-.362.051-.466.154L29.724 40.206c-4.552-4.318-6.88-6.528-6.983-6.631-.31-.309-.62-.463-.93-.463-.104 0-.311.154-.621.463l-3.88 3.855-.155.154c-.103.103-.155.309-.155.617 0 .206.052.36.155.463l.31.154c8.07 7.71 12.156 11.617 12.26 11.72.31.308.568.462.775.462.207 0 .466-.154.776-.463l21.569-27.602z" fill="#7ED321" fill-rule="evenodd"/></svg>